<mxfile host="65bd71144e">
    <diagram id="ZvcAvkWLLmfM1F0zynMo" name="第 1 页">
        <mxGraphModel dx="1810" dy="1216" grid="1" gridSize="10" guides="1" tooltips="1" connect="1" arrows="1" fold="1" page="1" pageScale="1" pageWidth="827" pageHeight="1169" background="#ffffff" math="0" shadow="0">
            <root>
                <mxCell id="0"/>
                <mxCell id="1" parent="0"/>
                <mxCell id="313" value="" style="group;fillColor=#f5f5f5;fontColor=#333333;strokeColor=#666666;" vertex="1" connectable="0" parent="1">
                    <mxGeometry x="10" y="20" width="1640" height="870" as="geometry"/>
                </mxCell>
                <mxCell id="309" value="" style="endArrow=none;html=1;rounded=0;fontSize=12;" edge="1" parent="313">
                    <mxGeometry width="50" height="50" relative="1" as="geometry">
                        <mxPoint y="870" as="sourcePoint"/>
                        <mxPoint as="targetPoint"/>
                    </mxGeometry>
                </mxCell>
                <mxCell id="310" value="" style="endArrow=none;html=1;rounded=0;fontSize=12;" edge="1" parent="313">
                    <mxGeometry width="50" height="50" relative="1" as="geometry">
                        <mxPoint x="1629.4111918797346" y="870" as="sourcePoint"/>
                        <mxPoint y="870" as="targetPoint"/>
                    </mxGeometry>
                </mxCell>
                <mxCell id="311" value="" style="endArrow=none;html=1;rounded=0;fontSize=12;" edge="1" parent="313">
                    <mxGeometry width="50" height="50" relative="1" as="geometry">
                        <mxPoint x="1630.0671918797352" as="sourcePoint"/>
                        <mxPoint x="0.6560000000000001" as="targetPoint"/>
                    </mxGeometry>
                </mxCell>
                <mxCell id="314" value="&lt;font style=&quot;&quot;&gt;&lt;span style=&quot;font-size: 20px;&quot;&gt;CPU Core&lt;/span&gt;&lt;br&gt;&lt;font style=&quot;font-size: 12px;&quot;&gt;Customized by cxz&lt;/font&gt;&lt;br&gt;&lt;/font&gt;" style="text;html=1;align=center;verticalAlign=middle;resizable=0;points=[];autosize=1;strokeColor=none;fillColor=none;fontSize=12;" vertex="1" parent="313">
                    <mxGeometry x="1456.1212121212118" y="30" width="120" height="50" as="geometry"/>
                </mxCell>
                <mxCell id="2" value="&lt;font style=&quot;font-size: 9px;&quot;&gt;IF/ID&lt;/font&gt;" style="rounded=0;whiteSpace=wrap;html=1;fillColor=#ffe6cc;strokeColor=#d79b00;" parent="1" vertex="1">
                    <mxGeometry x="350.01000000000005" y="240" width="40" height="480" as="geometry"/>
                </mxCell>
                <mxCell id="3" value="&lt;font style=&quot;font-size: 9px;&quot;&gt;ID/EX&lt;/font&gt;" style="rounded=0;whiteSpace=wrap;html=1;fillColor=#ffe6cc;strokeColor=#d79b00;" parent="1" vertex="1">
                    <mxGeometry x="640.01" y="240" width="40" height="480" as="geometry"/>
                </mxCell>
                <mxCell id="4" value="&lt;font style=&quot;font-size: 10px;&quot;&gt;EX/MEM&lt;/font&gt;" style="rounded=0;whiteSpace=wrap;html=1;fillColor=#ffe6cc;strokeColor=#d79b00;" parent="1" vertex="1">
                    <mxGeometry x="1170.01" y="240" width="40" height="480" as="geometry"/>
                </mxCell>
                <mxCell id="5" value="&lt;font style=&quot;font-size: 9px;&quot;&gt;MEM/WB&lt;/font&gt;" style="rounded=0;whiteSpace=wrap;html=1;fillColor=#ffe6cc;strokeColor=#d79b00;" parent="1" vertex="1">
                    <mxGeometry x="1520.01" y="238" width="40" height="482" as="geometry"/>
                </mxCell>
                <mxCell id="27" style="edgeStyle=orthogonalEdgeStyle;rounded=0;html=1;exitX=0.75;exitY=0;exitDx=0;exitDy=0;" parent="1" source="6" edge="1">
                    <mxGeometry relative="1" as="geometry">
                        <Array as="points">
                            <mxPoint x="260.01" y="519"/>
                            <mxPoint x="290.01000000000005" y="519"/>
                        </Array>
                        <mxPoint x="290.01000000000005" y="519" as="targetPoint"/>
                    </mxGeometry>
                </mxCell>
                <mxCell id="6" value="Instruction&lt;br&gt;memory" style="rounded=0;whiteSpace=wrap;html=1;fontSize=9;fillColor=#dae8fc;strokeColor=#6c8ebf;" parent="1" vertex="1">
                    <mxGeometry x="170.01" y="1000" width="120" height="120" as="geometry"/>
                </mxCell>
                <mxCell id="21" style="edgeStyle=orthogonalEdgeStyle;html=1;exitX=1;exitY=0.5;exitDx=0;exitDy=0;entryX=0.25;entryY=0;entryDx=0;entryDy=0;rounded=0;" parent="1" source="7" target="6" edge="1">
                    <mxGeometry relative="1" as="geometry"/>
                </mxCell>
                <mxCell id="7" value="PC" style="rounded=0;whiteSpace=wrap;html=1;fontSize=9;fillColor=#ffe6cc;strokeColor=#d79b00;" parent="1" vertex="1">
                    <mxGeometry x="130.01" y="460" width="40" height="80" as="geometry"/>
                </mxCell>
                <mxCell id="35" style="edgeStyle=orthogonalEdgeStyle;rounded=0;html=1;exitX=1;exitY=0.25;exitDx=0;exitDy=0;entryX=0;entryY=0.458;entryDx=0;entryDy=0;entryPerimeter=0;fontSize=9;" parent="1" source="8" target="3" edge="1">
                    <mxGeometry relative="1" as="geometry"/>
                </mxCell>
                <mxCell id="36" style="edgeStyle=orthogonalEdgeStyle;rounded=0;html=1;exitX=1;exitY=0.75;exitDx=0;exitDy=0;fontSize=9;" parent="1" source="8" edge="1">
                    <mxGeometry relative="1" as="geometry">
                        <mxPoint x="640.01" y="500" as="targetPoint"/>
                    </mxGeometry>
                </mxCell>
                <mxCell id="8" value="Registers" style="rounded=0;whiteSpace=wrap;html=1;fontSize=9;fillColor=#d5e8d4;strokeColor=#82b366;" parent="1" vertex="1">
                    <mxGeometry x="520.01" y="440" width="80" height="80" as="geometry"/>
                </mxCell>
                <mxCell id="59" style="edgeStyle=elbowEdgeStyle;rounded=0;elbow=vertical;html=1;exitX=1;exitY=0.5;exitDx=0;exitDy=0;fontSize=5;" parent="1" source="9" target="3" edge="1">
                    <mxGeometry relative="1" as="geometry">
                        <mxPoint x="630.01" y="390" as="targetPoint"/>
                    </mxGeometry>
                </mxCell>
                <mxCell id="9" value="Imm&lt;br&gt;Gen" style="ellipse;whiteSpace=wrap;html=1;fontSize=9;fillColor=#f0a30a;fontColor=#000000;strokeColor=#BD7000;" parent="1" vertex="1">
                    <mxGeometry x="500.01000000000005" y="370" width="40" height="40" as="geometry"/>
                </mxCell>
                <mxCell id="11" style="edgeStyle=none;html=1;exitX=0.5;exitY=0;exitDx=0;exitDy=0;entryX=0;entryY=0.5;entryDx=0;entryDy=0;" parent="1" source="10" target="7" edge="1">
                    <mxGeometry relative="1" as="geometry"/>
                </mxCell>
                <mxCell id="10" value="M&lt;br&gt;U&lt;br&gt;X" style="shape=trapezoid;perimeter=trapezoidPerimeter;whiteSpace=wrap;html=1;fixedSize=1;direction=south;" parent="1" vertex="1">
                    <mxGeometry x="50.01" y="440" width="40" height="120" as="geometry"/>
                </mxCell>
                <mxCell id="20" value="" style="group" parent="1" vertex="1" connectable="0">
                    <mxGeometry x="230.01" y="380" width="45" height="60" as="geometry"/>
                </mxCell>
                <mxCell id="13" value="" style="endArrow=none;html=1;" parent="20" edge="1">
                    <mxGeometry width="50" height="50" relative="1" as="geometry">
                        <mxPoint y="20" as="sourcePoint"/>
                        <mxPoint as="targetPoint"/>
                    </mxGeometry>
                </mxCell>
                <mxCell id="14" value="" style="endArrow=none;html=1;" parent="20" edge="1">
                    <mxGeometry width="50" height="50" relative="1" as="geometry">
                        <mxPoint x="40" y="40" as="sourcePoint"/>
                        <mxPoint x="40" y="20" as="targetPoint"/>
                    </mxGeometry>
                </mxCell>
                <mxCell id="15" value="" style="endArrow=none;html=1;" parent="20" edge="1">
                    <mxGeometry width="50" height="50" relative="1" as="geometry">
                        <mxPoint x="40" y="20" as="sourcePoint"/>
                        <mxPoint as="targetPoint"/>
                    </mxGeometry>
                </mxCell>
                <mxCell id="16" value="" style="endArrow=none;html=1;" parent="20" edge="1">
                    <mxGeometry width="50" height="50" relative="1" as="geometry">
                        <mxPoint x="40" y="40" as="sourcePoint"/>
                        <mxPoint y="60" as="targetPoint"/>
                    </mxGeometry>
                </mxCell>
                <mxCell id="17" value="" style="endArrow=none;html=1;" parent="20" edge="1">
                    <mxGeometry width="50" height="50" relative="1" as="geometry">
                        <mxPoint y="60" as="sourcePoint"/>
                        <mxPoint y="40" as="targetPoint"/>
                    </mxGeometry>
                </mxCell>
                <mxCell id="18" value="" style="endArrow=none;html=1;" parent="20" edge="1">
                    <mxGeometry width="50" height="50" relative="1" as="geometry">
                        <mxPoint y="40" as="sourcePoint"/>
                        <mxPoint x="10" y="30" as="targetPoint"/>
                    </mxGeometry>
                </mxCell>
                <mxCell id="19" value="" style="endArrow=none;html=1;" parent="20" edge="1">
                    <mxGeometry width="50" height="50" relative="1" as="geometry">
                        <mxPoint x="10" y="30" as="sourcePoint"/>
                        <mxPoint y="20" as="targetPoint"/>
                    </mxGeometry>
                </mxCell>
                <mxCell id="23" value="Add" style="text;html=1;align=center;verticalAlign=middle;resizable=0;points=[];autosize=1;strokeColor=none;fillColor=none;" parent="20" vertex="1">
                    <mxGeometry y="15" width="40" height="30" as="geometry"/>
                </mxCell>
                <mxCell id="24" style="edgeStyle=orthogonalEdgeStyle;html=1;exitX=0.5;exitY=0;exitDx=0;exitDy=0;rounded=0;" parent="1" edge="1">
                    <mxGeometry relative="1" as="geometry">
                        <mxPoint x="200.01" y="499.8600000000001" as="sourcePoint"/>
                        <mxPoint x="230.01" y="430" as="targetPoint"/>
                        <Array as="points">
                            <mxPoint x="200.01" y="430"/>
                        </Array>
                    </mxGeometry>
                </mxCell>
                <mxCell id="25" value="" style="edgeStyle=none;orthogonalLoop=1;jettySize=auto;html=1;rounded=0;" parent="1" edge="1">
                    <mxGeometry width="100" relative="1" as="geometry">
                        <mxPoint x="170.01" y="390" as="sourcePoint"/>
                        <mxPoint x="230.01" y="390" as="targetPoint"/>
                        <Array as="points"/>
                    </mxGeometry>
                </mxCell>
                <mxCell id="26" value="+4" style="text;html=1;align=center;verticalAlign=middle;resizable=0;points=[];autosize=1;strokeColor=none;fillColor=none;" parent="1" vertex="1">
                    <mxGeometry x="180.01" y="370" width="40" height="30" as="geometry"/>
                </mxCell>
                <mxCell id="28" style="edgeStyle=orthogonalEdgeStyle;rounded=0;html=1;exitX=1.015;exitY=0.467;exitDx=0;exitDy=0;exitPerimeter=0;entryX=0.167;entryY=1;entryDx=0;entryDy=0;entryPerimeter=0;" parent="1" source="23" target="10" edge="1">
                    <mxGeometry relative="1" as="geometry">
                        <mxPoint x="280.01000000000005" y="440.00000000000006" as="sourcePoint"/>
                        <mxPoint x="20.009999999999998" y="460" as="targetPoint"/>
                        <Array as="points">
                            <mxPoint x="290" y="409"/>
                            <mxPoint x="290" y="360"/>
                            <mxPoint x="30" y="360"/>
                            <mxPoint x="30" y="460"/>
                        </Array>
                    </mxGeometry>
                </mxCell>
                <mxCell id="29" style="edgeStyle=orthogonalEdgeStyle;rounded=0;html=1;exitX=0.526;exitY=-0.004;exitDx=0;exitDy=0;exitPerimeter=0;" parent="1" edge="1" source="292">
                    <mxGeometry relative="1" as="geometry">
                        <mxPoint x="440.01000000000005" y="500" as="sourcePoint"/>
                        <mxPoint x="640.01" y="560" as="targetPoint"/>
                        <Array as="points">
                            <mxPoint x="440.01000000000005" y="490"/>
                            <mxPoint x="450.01000000000005" y="490"/>
                            <mxPoint x="450.01000000000005" y="560"/>
                        </Array>
                    </mxGeometry>
                </mxCell>
                <mxCell id="30" value="" style="endArrow=classic;html=1;rounded=0;edgeStyle=orthogonalEdgeStyle;entryX=0.001;entryY=0.118;entryDx=0;entryDy=0;entryPerimeter=0;" parent="1" target="8" edge="1">
                    <mxGeometry width="50" height="50" relative="1" as="geometry">
                        <mxPoint x="450.01000000000005" y="500" as="sourcePoint"/>
                        <mxPoint x="510.01000000000005" y="450" as="targetPoint"/>
                        <Array as="points">
                            <mxPoint x="450.01000000000005" y="500"/>
                            <mxPoint x="450.01000000000005" y="449"/>
                        </Array>
                    </mxGeometry>
                </mxCell>
                <mxCell id="31" value="" style="endArrow=classic;html=1;rounded=0;edgeStyle=orthogonalEdgeStyle;" parent="1" edge="1">
                    <mxGeometry width="50" height="50" relative="1" as="geometry">
                        <mxPoint x="450.01000000000005" y="470" as="sourcePoint"/>
                        <mxPoint x="520.01" y="470" as="targetPoint"/>
                        <Array as="points"/>
                    </mxGeometry>
                </mxCell>
                <mxCell id="32" value="rs1" style="text;html=1;align=center;verticalAlign=middle;resizable=0;points=[];autosize=1;strokeColor=none;fillColor=none;fontSize=9;" parent="1" vertex="1">
                    <mxGeometry x="460.01000000000005" y="430" width="40" height="20" as="geometry"/>
                </mxCell>
                <mxCell id="33" value="rs2" style="text;html=1;align=center;verticalAlign=middle;resizable=0;points=[];autosize=1;strokeColor=none;fillColor=none;fontSize=9;" parent="1" vertex="1">
                    <mxGeometry x="460.01000000000005" y="450" width="40" height="20" as="geometry"/>
                </mxCell>
                <mxCell id="50" style="edgeStyle=elbowEdgeStyle;rounded=0;elbow=vertical;html=1;exitX=1;exitY=1;exitDx=0;exitDy=0;fontSize=9;" parent="1" source="34" target="3" edge="1">
                    <mxGeometry relative="1" as="geometry"/>
                </mxCell>
                <mxCell id="51" style="edgeStyle=elbowEdgeStyle;rounded=0;elbow=vertical;html=1;exitX=1;exitY=0;exitDx=0;exitDy=0;fontSize=9;" parent="1" source="34" edge="1">
                    <mxGeometry relative="1" as="geometry">
                        <mxPoint x="610.01" y="270" as="targetPoint"/>
                        <Array as="points">
                            <mxPoint x="590.01" y="270"/>
                        </Array>
                    </mxGeometry>
                </mxCell>
                <mxCell id="52" style="edgeStyle=elbowEdgeStyle;rounded=0;elbow=vertical;html=1;exitX=1;exitY=0.5;exitDx=0;exitDy=0;entryX=0;entryY=0.125;entryDx=0;entryDy=0;entryPerimeter=0;fontSize=9;" parent="1" source="34" target="3" edge="1">
                    <mxGeometry relative="1" as="geometry"/>
                </mxCell>
                <mxCell id="34" value="Ctrl" style="ellipse;whiteSpace=wrap;html=1;fontSize=9;fillColor=#e3c800;fontColor=#000000;strokeColor=#B09500;" parent="1" vertex="1">
                    <mxGeometry x="500.01000000000005" y="240" width="40" height="120" as="geometry"/>
                </mxCell>
                <mxCell id="38" value="rs1_data" style="text;html=1;align=center;verticalAlign=middle;resizable=0;points=[];autosize=1;strokeColor=none;fillColor=none;fontSize=9;" parent="1" vertex="1">
                    <mxGeometry x="588.01" y="440" width="60" height="20" as="geometry"/>
                </mxCell>
                <mxCell id="39" value="rs2_data" style="text;html=1;align=center;verticalAlign=middle;resizable=0;points=[];autosize=1;strokeColor=none;fillColor=none;fontSize=9;" parent="1" vertex="1">
                    <mxGeometry x="588.01" y="480" width="60" height="20" as="geometry"/>
                </mxCell>
                <mxCell id="40" value="rd_addr1" style="text;html=1;align=center;verticalAlign=middle;resizable=0;points=[];autosize=1;strokeColor=none;fillColor=none;fontSize=5;" parent="1" vertex="1">
                    <mxGeometry x="510.01000000000005" y="440" width="40" height="20" as="geometry"/>
                </mxCell>
                <mxCell id="42" value="rd_addr2" style="text;html=1;align=center;verticalAlign=middle;resizable=0;points=[];autosize=1;strokeColor=none;fillColor=none;fontSize=5;" parent="1" vertex="1">
                    <mxGeometry x="510.01000000000005" y="460" width="40" height="20" as="geometry"/>
                </mxCell>
                <mxCell id="44" value="rd_data1" style="text;html=1;align=center;verticalAlign=middle;resizable=0;points=[];autosize=1;strokeColor=none;fillColor=none;fontSize=5;" parent="1" vertex="1">
                    <mxGeometry x="570.01" y="449" width="40" height="20" as="geometry"/>
                </mxCell>
                <mxCell id="45" value="rd_data2" style="text;html=1;align=center;verticalAlign=middle;resizable=0;points=[];autosize=1;strokeColor=none;fillColor=none;fontSize=5;" parent="1" vertex="1">
                    <mxGeometry x="570.01" y="490" width="40" height="20" as="geometry"/>
                </mxCell>
                <mxCell id="46" value="" style="endArrow=classic;html=1;rounded=0;edgeStyle=orthogonalEdgeStyle;entryX=0;entryY=0.5;entryDx=0;entryDy=0;" parent="1" target="34" edge="1">
                    <mxGeometry width="50" height="50" relative="1" as="geometry">
                        <mxPoint x="450.01000000000005" y="450" as="sourcePoint"/>
                        <mxPoint x="460.01000000000005" y="280" as="targetPoint"/>
                        <Array as="points">
                            <mxPoint x="450.01000000000005" y="449"/>
                            <mxPoint x="450.01000000000005" y="300"/>
                        </Array>
                    </mxGeometry>
                </mxCell>
                <mxCell id="47" value="&lt;font style=&quot;font-size: 9px;&quot;&gt;opcode,func3&lt;/font&gt;" style="text;html=1;align=center;verticalAlign=middle;resizable=0;points=[];autosize=1;strokeColor=none;fillColor=none;fontSize=5;" parent="1" vertex="1">
                    <mxGeometry x="430.01000000000005" y="280" width="80" height="20" as="geometry"/>
                </mxCell>
                <mxCell id="48" value="" style="endArrow=classic;html=1;rounded=0;edgeStyle=orthogonalEdgeStyle;entryX=0;entryY=0.5;entryDx=0;entryDy=0;" parent="1" target="9" edge="1">
                    <mxGeometry width="50" height="50" relative="1" as="geometry">
                        <mxPoint x="480.01000000000005" y="300" as="sourcePoint"/>
                        <mxPoint x="530.01" y="310" as="targetPoint"/>
                        <Array as="points">
                            <mxPoint x="480.01000000000005" y="300"/>
                            <mxPoint x="480.01000000000005" y="390"/>
                        </Array>
                    </mxGeometry>
                </mxCell>
                <mxCell id="53" value="&lt;font style=&quot;font-size: 5px;&quot;&gt;To WB&lt;/font&gt;" style="text;html=1;align=center;verticalAlign=middle;resizable=0;points=[];autosize=1;strokeColor=none;fillColor=none;fontSize=9;" parent="1" vertex="1">
                    <mxGeometry x="554.01" y="252" width="40" height="20" as="geometry"/>
                </mxCell>
                <mxCell id="54" value="&lt;font style=&quot;font-size: 5px;&quot;&gt;To MEM&lt;/font&gt;" style="text;html=1;align=center;verticalAlign=middle;resizable=0;points=[];autosize=1;strokeColor=none;fillColor=none;fontSize=9;" parent="1" vertex="1">
                    <mxGeometry x="577.01" y="283" width="40" height="20" as="geometry"/>
                </mxCell>
                <mxCell id="55" value="&lt;font style=&quot;font-size: 5px;&quot;&gt;To EX&lt;/font&gt;" style="text;html=1;align=center;verticalAlign=middle;resizable=0;points=[];autosize=1;strokeColor=none;fillColor=none;fontSize=9;" parent="1" vertex="1">
                    <mxGeometry x="574.01" y="327" width="40" height="20" as="geometry"/>
                </mxCell>
                <mxCell id="56" value="&lt;font style=&quot;font-size: 5px;&quot;&gt;ALUSrc，ALUop[1:0]，JJAL[2:0]&lt;/font&gt;" style="text;html=1;align=center;verticalAlign=middle;resizable=0;points=[];autosize=1;strokeColor=none;fillColor=none;fontSize=9;" parent="1" vertex="1">
                    <mxGeometry x="542.01" y="335" width="100" height="20" as="geometry"/>
                </mxCell>
                <mxCell id="57" value="&lt;font style=&quot;font-size: 5px;&quot;&gt;Branch，MemRead，MemWrite&lt;/font&gt;" style="text;html=1;align=center;verticalAlign=middle;resizable=0;points=[];autosize=1;strokeColor=none;fillColor=none;fontSize=9;" parent="1" vertex="1">
                    <mxGeometry x="547.01" y="297" width="100" height="20" as="geometry"/>
                </mxCell>
                <mxCell id="58" value="&lt;font style=&quot;font-size: 5px;&quot;&gt;RegWirte，MemtoReg&lt;/font&gt;" style="text;html=1;align=center;verticalAlign=middle;resizable=0;points=[];autosize=1;strokeColor=none;fillColor=none;fontSize=9;" parent="1" vertex="1">
                    <mxGeometry x="540.01" y="263" width="70" height="20" as="geometry"/>
                </mxCell>
                <mxCell id="60" value="Imm_gen[31:0]" style="text;html=1;align=center;verticalAlign=middle;resizable=0;points=[];autosize=1;strokeColor=none;fillColor=none;fontSize=5;" parent="1" vertex="1">
                    <mxGeometry x="569.01" y="375" width="60" height="20" as="geometry"/>
                </mxCell>
                <mxCell id="61" value="&lt;font style=&quot;font-size: 9px;&quot;&gt;Instruction[31:0]&lt;/font&gt;" style="text;html=1;align=center;verticalAlign=middle;resizable=0;points=[];autosize=1;strokeColor=none;fillColor=none;fontSize=5;" parent="1" vertex="1">
                    <mxGeometry x="230.01" y="550" width="90" height="20" as="geometry"/>
                </mxCell>
                <mxCell id="62" value="Instruction&lt;br&gt;[30，14-12]" style="text;html=1;align=center;verticalAlign=middle;resizable=0;points=[];autosize=1;strokeColor=none;fillColor=none;fontSize=9;" parent="1" vertex="1">
                    <mxGeometry x="525.01" y="525" width="70" height="40" as="geometry"/>
                </mxCell>
                <mxCell id="63" value="" style="endArrow=classic;html=1;rounded=0;edgeStyle=orthogonalEdgeStyle;entryX=0;entryY=0.75;entryDx=0;entryDy=0;exitX=1;exitY=0.75;exitDx=0;exitDy=0;" parent="1" target="3" edge="1" source="2">
                    <mxGeometry width="50" height="50" relative="1" as="geometry">
                        <mxPoint x="450.01000000000005" y="560" as="sourcePoint"/>
                        <mxPoint x="630.01" y="600" as="targetPoint"/>
                        <Array as="points"/>
                    </mxGeometry>
                </mxCell>
                <mxCell id="64" value="rd" style="text;html=1;align=center;verticalAlign=middle;resizable=0;points=[];autosize=1;strokeColor=none;fillColor=none;fontSize=9;" parent="1" vertex="1">
                    <mxGeometry x="544.01" y="620" width="30" height="20" as="geometry"/>
                </mxCell>
                <mxCell id="65" value="" style="edgeStyle=none;orthogonalLoop=1;jettySize=auto;html=1;rounded=0;fontSize=9;elbow=vertical;exitX=1.004;exitY=0.837;exitDx=0;exitDy=0;exitPerimeter=0;entryX=-0.005;entryY=0.838;entryDx=0;entryDy=0;entryPerimeter=0;" parent="1" source="2" target="3" edge="1">
                    <mxGeometry width="100" relative="1" as="geometry">
                        <mxPoint x="540.01" y="600" as="sourcePoint"/>
                        <mxPoint x="640.01" y="600" as="targetPoint"/>
                        <Array as="points"/>
                    </mxGeometry>
                </mxCell>
                <mxCell id="66" value="" style="edgeStyle=none;orthogonalLoop=1;jettySize=auto;html=1;rounded=0;fontSize=9;elbow=vertical;entryX=0;entryY=0.75;entryDx=0;entryDy=0;" parent="1" edge="1" target="2">
                    <mxGeometry width="100" relative="1" as="geometry">
                        <mxPoint x="200.01" y="600" as="sourcePoint"/>
                        <mxPoint x="330.01000000000005" y="600" as="targetPoint"/>
                        <Array as="points"/>
                    </mxGeometry>
                </mxCell>
                <mxCell id="67" value="&lt;font style=&quot;font-size: 9px;&quot;&gt;Instruction_addr[31:0]&lt;/font&gt;" style="text;html=1;align=center;verticalAlign=middle;resizable=0;points=[];autosize=1;strokeColor=none;fillColor=none;fontSize=5;" parent="1" vertex="1">
                    <mxGeometry x="505.01000000000005" y="580" width="110" height="20" as="geometry"/>
                </mxCell>
                <mxCell id="68" value="Instruction_addr[31:0]" style="text;html=1;align=center;verticalAlign=middle;resizable=0;points=[];autosize=1;strokeColor=none;fillColor=none;fontSize=5;" parent="1" vertex="1">
                    <mxGeometry x="170.01" y="1000" width="70" height="20" as="geometry"/>
                </mxCell>
                <mxCell id="69" value="Instruction[31:0]" style="text;html=1;align=center;verticalAlign=middle;resizable=0;points=[];autosize=1;strokeColor=none;fillColor=none;fontSize=5;" parent="1" vertex="1">
                    <mxGeometry x="228.01" y="1000" width="60" height="20" as="geometry"/>
                </mxCell>
                <mxCell id="87" style="edgeStyle=orthogonalEdgeStyle;rounded=0;html=1;exitX=0.5;exitY=0;exitDx=0;exitDy=0;fontSize=10;" parent="1" source="70" edge="1">
                    <mxGeometry relative="1" as="geometry">
                        <mxPoint x="920.01" y="470" as="targetPoint"/>
                        <Array as="points">
                            <mxPoint x="880.01" y="440"/>
                            <mxPoint x="880.01" y="470"/>
                            <mxPoint x="920.01" y="470"/>
                        </Array>
                    </mxGeometry>
                </mxCell>
                <mxCell id="70" value="M&lt;br&gt;U&lt;br&gt;X" style="shape=trapezoid;perimeter=trapezoidPerimeter;whiteSpace=wrap;html=1;fixedSize=1;direction=south;" parent="1" vertex="1">
                    <mxGeometry x="740.01" y="400" width="20" height="80" as="geometry"/>
                </mxCell>
                <mxCell id="85" style="edgeStyle=orthogonalEdgeStyle;rounded=0;html=1;exitX=0.5;exitY=0;exitDx=0;exitDy=0;entryX=0.75;entryY=1;entryDx=0;entryDy=0;fontSize=10;" parent="1" source="71" target="84" edge="1">
                    <mxGeometry relative="1" as="geometry"/>
                </mxCell>
                <mxCell id="71" value="M&lt;br&gt;U&lt;br&gt;X" style="shape=trapezoid;perimeter=trapezoidPerimeter;whiteSpace=wrap;html=1;fixedSize=1;direction=south;" parent="1" vertex="1">
                    <mxGeometry x="740.01" y="520" width="20" height="80" as="geometry"/>
                </mxCell>
                <mxCell id="72" value="" style="group;fillColor=none;" parent="1" vertex="1" connectable="0">
                    <mxGeometry x="920.01" y="460" width="45" height="60" as="geometry"/>
                </mxCell>
                <mxCell id="73" value="" style="endArrow=none;html=1;" parent="72" edge="1">
                    <mxGeometry width="50" height="50" relative="1" as="geometry">
                        <mxPoint y="20" as="sourcePoint"/>
                        <mxPoint as="targetPoint"/>
                    </mxGeometry>
                </mxCell>
                <mxCell id="74" value="" style="endArrow=none;html=1;" parent="72" edge="1">
                    <mxGeometry width="50" height="50" relative="1" as="geometry">
                        <mxPoint x="40" y="40" as="sourcePoint"/>
                        <mxPoint x="40" y="20" as="targetPoint"/>
                    </mxGeometry>
                </mxCell>
                <mxCell id="75" value="" style="endArrow=none;html=1;" parent="72" edge="1">
                    <mxGeometry width="50" height="50" relative="1" as="geometry">
                        <mxPoint x="40" y="20" as="sourcePoint"/>
                        <mxPoint as="targetPoint"/>
                    </mxGeometry>
                </mxCell>
                <mxCell id="76" value="" style="endArrow=none;html=1;" parent="72" edge="1">
                    <mxGeometry width="50" height="50" relative="1" as="geometry">
                        <mxPoint x="40" y="40" as="sourcePoint"/>
                        <mxPoint y="60" as="targetPoint"/>
                    </mxGeometry>
                </mxCell>
                <mxCell id="77" value="" style="endArrow=none;html=1;" parent="72" edge="1">
                    <mxGeometry width="50" height="50" relative="1" as="geometry">
                        <mxPoint y="60" as="sourcePoint"/>
                        <mxPoint y="40" as="targetPoint"/>
                    </mxGeometry>
                </mxCell>
                <mxCell id="78" value="" style="endArrow=none;html=1;" parent="72" edge="1">
                    <mxGeometry width="50" height="50" relative="1" as="geometry">
                        <mxPoint y="40" as="sourcePoint"/>
                        <mxPoint x="10" y="30" as="targetPoint"/>
                    </mxGeometry>
                </mxCell>
                <mxCell id="79" value="" style="endArrow=none;html=1;" parent="72" edge="1">
                    <mxGeometry width="50" height="50" relative="1" as="geometry">
                        <mxPoint x="10" y="30" as="sourcePoint"/>
                        <mxPoint y="20" as="targetPoint"/>
                    </mxGeometry>
                </mxCell>
                <mxCell id="80" value="ALU" style="text;html=1;align=center;verticalAlign=middle;resizable=0;points=[];autosize=1;strokeColor=none;fillColor=none;" parent="72" vertex="1">
                    <mxGeometry x="-5" y="15" width="50" height="30" as="geometry"/>
                </mxCell>
                <mxCell id="81" value="" style="edgeStyle=orthogonalEdgeStyle;orthogonalLoop=1;jettySize=auto;html=1;rounded=0;" parent="1" edge="1">
                    <mxGeometry width="100" relative="1" as="geometry">
                        <mxPoint x="680.01" y="499.6700000000001" as="sourcePoint"/>
                        <mxPoint x="740.01" y="540" as="targetPoint"/>
                        <Array as="points">
                            <mxPoint x="700.01" y="500"/>
                            <mxPoint x="700.01" y="540"/>
                        </Array>
                    </mxGeometry>
                </mxCell>
                <mxCell id="82" value="" style="edgeStyle=orthogonalEdgeStyle;orthogonalLoop=1;jettySize=auto;html=1;rounded=0;" parent="1" edge="1">
                    <mxGeometry width="100" relative="1" as="geometry">
                        <mxPoint x="680.01" y="460.00000000000006" as="sourcePoint"/>
                        <mxPoint x="740.01" y="420" as="targetPoint"/>
                        <Array as="points">
                            <mxPoint x="700.01" y="460"/>
                            <mxPoint x="700.01" y="420"/>
                        </Array>
                    </mxGeometry>
                </mxCell>
                <mxCell id="83" value="" style="edgeStyle=orthogonalEdgeStyle;orthogonalLoop=1;jettySize=auto;html=1;rounded=0;entryX=0;entryY=0.5;entryDx=0;entryDy=0;" parent="1" target="84" edge="1">
                    <mxGeometry width="100" relative="1" as="geometry">
                        <mxPoint x="680.01" y="340" as="sourcePoint"/>
                        <mxPoint x="820.01" y="480" as="targetPoint"/>
                        <Array as="points">
                            <mxPoint x="840.01" y="340"/>
                        </Array>
                    </mxGeometry>
                </mxCell>
                <mxCell id="88" style="edgeStyle=orthogonalEdgeStyle;rounded=0;html=1;exitX=0.5;exitY=0;exitDx=0;exitDy=0;fontSize=10;" parent="1" source="84" edge="1">
                    <mxGeometry relative="1" as="geometry">
                        <mxPoint x="920.01" y="510" as="targetPoint"/>
                        <Array as="points">
                            <mxPoint x="880.01" y="540"/>
                            <mxPoint x="880.01" y="510"/>
                        </Array>
                    </mxGeometry>
                </mxCell>
                <mxCell id="84" value="M&lt;br&gt;U&lt;br&gt;X" style="shape=trapezoid;perimeter=trapezoidPerimeter;whiteSpace=wrap;html=1;fixedSize=1;direction=south;" parent="1" vertex="1">
                    <mxGeometry x="830.01" y="500" width="20" height="80" as="geometry"/>
                </mxCell>
                <mxCell id="86" value="" style="edgeStyle=orthogonalEdgeStyle;orthogonalLoop=1;jettySize=auto;html=1;rounded=0;exitX=0.997;exitY=0.233;exitDx=0;exitDy=0;exitPerimeter=0;entryX=0.25;entryY=1;entryDx=0;entryDy=0;" parent="1" target="84" edge="1">
                    <mxGeometry width="100" relative="1" as="geometry">
                        <mxPoint x="680.0100000000001" y="390.18999999999994" as="sourcePoint"/>
                        <mxPoint x="790.01" y="520" as="targetPoint"/>
                        <Array as="points">
                            <mxPoint x="790.01" y="390"/>
                            <mxPoint x="790.01" y="520"/>
                        </Array>
                    </mxGeometry>
                </mxCell>
                <mxCell id="89" value="&lt;font style=&quot;font-size: 8px;&quot;&gt;ALUSrc&lt;/font&gt;" style="text;html=1;align=center;verticalAlign=middle;resizable=0;points=[];autosize=1;strokeColor=none;fillColor=none;fontSize=10;" parent="1" vertex="1">
                    <mxGeometry x="830.01" y="480" width="50" height="30" as="geometry"/>
                </mxCell>
                <mxCell id="90" value="&lt;font style=&quot;font-size: 5px;&quot;&gt;1&lt;/font&gt;" style="text;html=1;align=center;verticalAlign=middle;resizable=0;points=[];autosize=1;strokeColor=none;fillColor=none;fontSize=8;" parent="1" vertex="1">
                    <mxGeometry x="818.01" y="510" width="30" height="20" as="geometry"/>
                </mxCell>
                <mxCell id="91" value="&lt;font style=&quot;font-size: 5px;&quot;&gt;0&lt;/font&gt;" style="text;html=1;align=center;verticalAlign=middle;resizable=0;points=[];autosize=1;strokeColor=none;fillColor=none;fontSize=8;" parent="1" vertex="1">
                    <mxGeometry x="818.01" y="550" width="30" height="20" as="geometry"/>
                </mxCell>
                <mxCell id="92" value="" style="edgeStyle=orthogonalEdgeStyle;orthogonalLoop=1;jettySize=auto;html=1;rounded=0;" parent="1" edge="1">
                    <mxGeometry width="100" relative="1" as="geometry">
                        <mxPoint x="681.01" y="600" as="sourcePoint"/>
                        <mxPoint x="820.01" y="650" as="targetPoint"/>
                        <Array as="points">
                            <mxPoint x="730.01" y="600"/>
                            <mxPoint x="730.01" y="650"/>
                        </Array>
                    </mxGeometry>
                </mxCell>
                <mxCell id="94" value="" style="group" parent="1" vertex="1" connectable="0">
                    <mxGeometry x="820.01" y="680" width="35" height="60" as="geometry"/>
                </mxCell>
                <mxCell id="95" value="" style="endArrow=none;html=1;" parent="94" edge="1">
                    <mxGeometry width="50" height="50" relative="1" as="geometry">
                        <mxPoint y="20" as="sourcePoint"/>
                        <mxPoint as="targetPoint"/>
                    </mxGeometry>
                </mxCell>
                <mxCell id="96" value="" style="endArrow=none;html=1;" parent="94" edge="1">
                    <mxGeometry width="50" height="50" relative="1" as="geometry">
                        <mxPoint x="31.11111111111111" y="40" as="sourcePoint"/>
                        <mxPoint x="31.11111111111111" y="20" as="targetPoint"/>
                    </mxGeometry>
                </mxCell>
                <mxCell id="97" value="" style="endArrow=none;html=1;" parent="94" edge="1">
                    <mxGeometry width="50" height="50" relative="1" as="geometry">
                        <mxPoint x="31.11111111111111" y="20" as="sourcePoint"/>
                        <mxPoint as="targetPoint"/>
                    </mxGeometry>
                </mxCell>
                <mxCell id="98" value="" style="endArrow=none;html=1;" parent="94" edge="1">
                    <mxGeometry width="50" height="50" relative="1" as="geometry">
                        <mxPoint x="31.11111111111111" y="40" as="sourcePoint"/>
                        <mxPoint y="60" as="targetPoint"/>
                    </mxGeometry>
                </mxCell>
                <mxCell id="99" value="" style="endArrow=none;html=1;" parent="94" edge="1">
                    <mxGeometry width="50" height="50" relative="1" as="geometry">
                        <mxPoint y="60" as="sourcePoint"/>
                        <mxPoint y="40" as="targetPoint"/>
                    </mxGeometry>
                </mxCell>
                <mxCell id="100" value="" style="endArrow=none;html=1;" parent="94" edge="1">
                    <mxGeometry width="50" height="50" relative="1" as="geometry">
                        <mxPoint y="40" as="sourcePoint"/>
                        <mxPoint x="7.777777777777778" y="30" as="targetPoint"/>
                    </mxGeometry>
                </mxCell>
                <mxCell id="101" value="" style="endArrow=none;html=1;" parent="94" edge="1">
                    <mxGeometry width="50" height="50" relative="1" as="geometry">
                        <mxPoint x="7.777777777777778" y="30" as="sourcePoint"/>
                        <mxPoint y="20" as="targetPoint"/>
                    </mxGeometry>
                </mxCell>
                <mxCell id="102" value="Add" style="text;html=1;align=center;verticalAlign=middle;resizable=0;points=[];autosize=1;strokeColor=none;fillColor=none;" parent="94" vertex="1">
                    <mxGeometry y="15" width="40" height="30" as="geometry"/>
                </mxCell>
                <mxCell id="103" value="" style="edgeStyle=none;orthogonalLoop=1;jettySize=auto;html=1;rounded=0;" parent="1" edge="1">
                    <mxGeometry width="100" relative="1" as="geometry">
                        <mxPoint x="780.01" y="730" as="sourcePoint"/>
                        <mxPoint x="820.01" y="730" as="targetPoint"/>
                        <Array as="points"/>
                    </mxGeometry>
                </mxCell>
                <mxCell id="104" value="+4" style="text;html=1;align=center;verticalAlign=middle;resizable=0;points=[];autosize=1;strokeColor=none;fillColor=none;" parent="1" vertex="1">
                    <mxGeometry x="780.01" y="710" width="40" height="30" as="geometry"/>
                </mxCell>
                <mxCell id="105" value="" style="group" parent="1" vertex="1" connectable="0">
                    <mxGeometry x="820.01" y="600" width="35" height="60" as="geometry"/>
                </mxCell>
                <mxCell id="106" value="" style="endArrow=none;html=1;" parent="105" edge="1">
                    <mxGeometry width="50" height="50" relative="1" as="geometry">
                        <mxPoint y="20" as="sourcePoint"/>
                        <mxPoint as="targetPoint"/>
                    </mxGeometry>
                </mxCell>
                <mxCell id="107" value="" style="endArrow=none;html=1;" parent="105" edge="1">
                    <mxGeometry width="50" height="50" relative="1" as="geometry">
                        <mxPoint x="31.11111111111111" y="40" as="sourcePoint"/>
                        <mxPoint x="31.11111111111111" y="20" as="targetPoint"/>
                    </mxGeometry>
                </mxCell>
                <mxCell id="108" value="" style="endArrow=none;html=1;" parent="105" edge="1">
                    <mxGeometry width="50" height="50" relative="1" as="geometry">
                        <mxPoint x="31.11111111111111" y="20" as="sourcePoint"/>
                        <mxPoint as="targetPoint"/>
                    </mxGeometry>
                </mxCell>
                <mxCell id="109" value="" style="endArrow=none;html=1;" parent="105" edge="1">
                    <mxGeometry width="50" height="50" relative="1" as="geometry">
                        <mxPoint x="31.11111111111111" y="40" as="sourcePoint"/>
                        <mxPoint y="60" as="targetPoint"/>
                    </mxGeometry>
                </mxCell>
                <mxCell id="110" value="" style="endArrow=none;html=1;" parent="105" edge="1">
                    <mxGeometry width="50" height="50" relative="1" as="geometry">
                        <mxPoint y="60" as="sourcePoint"/>
                        <mxPoint y="40" as="targetPoint"/>
                    </mxGeometry>
                </mxCell>
                <mxCell id="111" value="" style="endArrow=none;html=1;" parent="105" edge="1">
                    <mxGeometry width="50" height="50" relative="1" as="geometry">
                        <mxPoint y="40" as="sourcePoint"/>
                        <mxPoint x="7.777777777777778" y="30" as="targetPoint"/>
                    </mxGeometry>
                </mxCell>
                <mxCell id="112" value="" style="endArrow=none;html=1;" parent="105" edge="1">
                    <mxGeometry width="50" height="50" relative="1" as="geometry">
                        <mxPoint x="7.777777777777778" y="30" as="sourcePoint"/>
                        <mxPoint y="20" as="targetPoint"/>
                    </mxGeometry>
                </mxCell>
                <mxCell id="113" value="Add" style="text;html=1;align=center;verticalAlign=middle;resizable=0;points=[];autosize=1;strokeColor=none;fillColor=none;" parent="105" vertex="1">
                    <mxGeometry y="15" width="40" height="30" as="geometry"/>
                </mxCell>
                <mxCell id="114" value="" style="edgeStyle=orthogonalEdgeStyle;orthogonalLoop=1;jettySize=auto;html=1;rounded=0;" parent="1" edge="1">
                    <mxGeometry width="100" relative="1" as="geometry">
                        <mxPoint x="780.01" y="650" as="sourcePoint"/>
                        <mxPoint x="820.01" y="690" as="targetPoint"/>
                        <Array as="points">
                            <mxPoint x="790.01" y="650"/>
                            <mxPoint x="790.01" y="690"/>
                        </Array>
                    </mxGeometry>
                </mxCell>
                <mxCell id="115" value="" style="edgeStyle=orthogonalEdgeStyle;orthogonalLoop=1;jettySize=auto;html=1;rounded=0;" parent="1" edge="1">
                    <mxGeometry width="100" relative="1" as="geometry">
                        <mxPoint x="790.01" y="520" as="sourcePoint"/>
                        <mxPoint x="820.01" y="610" as="targetPoint"/>
                        <Array as="points">
                            <mxPoint x="790.01" y="520"/>
                            <mxPoint x="790.01" y="610"/>
                        </Array>
                    </mxGeometry>
                </mxCell>
                <mxCell id="116" value="" style="edgeStyle=orthogonalEdgeStyle;orthogonalLoop=1;jettySize=auto;html=1;rounded=0;exitX=0.997;exitY=0.233;exitDx=0;exitDy=0;exitPerimeter=0;" parent="1" edge="1">
                    <mxGeometry width="100" relative="1" as="geometry">
                        <mxPoint x="840.0099999999999" y="340.18999999999994" as="sourcePoint"/>
                        <mxPoint x="940.01" y="470" as="targetPoint"/>
                        <Array as="points">
                            <mxPoint x="940.01" y="340"/>
                        </Array>
                    </mxGeometry>
                </mxCell>
                <mxCell id="117" style="edgeStyle=orthogonalEdgeStyle;rounded=0;html=1;" parent="1" edge="1">
                    <mxGeometry relative="1" as="geometry">
                        <mxPoint x="680.01" y="560" as="sourcePoint"/>
                        <mxPoint x="940.01" y="350" as="targetPoint"/>
                        <Array as="points">
                            <mxPoint x="690.01" y="560"/>
                            <mxPoint x="690.01" y="350"/>
                        </Array>
                    </mxGeometry>
                </mxCell>
                <mxCell id="118" value="ALUop[1:0]，&lt;br&gt;ALU_ctrl[3:0]" style="text;html=1;align=center;verticalAlign=middle;resizable=0;points=[];autosize=1;strokeColor=none;fillColor=none;fontSize=5;" parent="1" vertex="1">
                    <mxGeometry x="932.01" y="438" width="50" height="30" as="geometry"/>
                </mxCell>
                <mxCell id="120" value="ALU_ctrl[3:0]" style="text;html=1;align=center;verticalAlign=middle;resizable=0;points=[];autosize=1;strokeColor=none;fillColor=none;fontSize=5;" parent="1" vertex="1">
                    <mxGeometry x="886.01" y="346" width="50" height="20" as="geometry"/>
                </mxCell>
                <mxCell id="121" value="&lt;font style=&quot;font-size: 5px;&quot;&gt;ALUSrc，ALUop[1:0]，JJAL[2:0]&lt;/font&gt;" style="text;html=1;align=center;verticalAlign=middle;resizable=0;points=[];autosize=1;strokeColor=none;fillColor=none;fontSize=9;" parent="1" vertex="1">
                    <mxGeometry x="790.01" y="323" width="100" height="20" as="geometry"/>
                </mxCell>
                <mxCell id="123" style="edgeStyle=orthogonalEdgeStyle;rounded=0;html=1;exitX=0.5;exitY=0;exitDx=0;exitDy=0;fontSize=10;" parent="1" edge="1">
                    <mxGeometry relative="1" as="geometry">
                        <mxPoint x="1000.01" y="500" as="targetPoint"/>
                        <mxPoint x="960.01" y="500" as="sourcePoint"/>
                        <Array as="points">
                            <mxPoint x="1000.01" y="500"/>
                            <mxPoint x="1000.01" y="500"/>
                        </Array>
                    </mxGeometry>
                </mxCell>
                <mxCell id="127" value="" style="edgeStyle=orthogonalEdgeStyle;orthogonalLoop=1;jettySize=auto;html=1;rounded=0;fontSize=5;entryX=0.103;entryY=0.501;entryDx=0;entryDy=0;entryPerimeter=0;" parent="1" target="128" edge="1">
                    <mxGeometry width="100" relative="1" as="geometry">
                        <mxPoint x="940.01" y="340" as="sourcePoint"/>
                        <mxPoint x="1010.01" y="480" as="targetPoint"/>
                    </mxGeometry>
                </mxCell>
                <mxCell id="132" style="edgeStyle=orthogonalEdgeStyle;rounded=0;html=1;exitX=0.5;exitY=0;exitDx=0;exitDy=0;fontSize=5;" parent="1" source="128" edge="1">
                    <mxGeometry relative="1" as="geometry">
                        <mxPoint x="1170.01" y="530" as="targetPoint"/>
                    </mxGeometry>
                </mxCell>
                <mxCell id="128" value="M&lt;br&gt;U&lt;br&gt;X" style="shape=trapezoid;perimeter=trapezoidPerimeter;whiteSpace=wrap;html=1;fixedSize=1;direction=south;" parent="1" vertex="1">
                    <mxGeometry x="1000.01" y="490" width="20" height="80" as="geometry"/>
                </mxCell>
                <mxCell id="129" value="" style="edgeStyle=orthogonalEdgeStyle;orthogonalLoop=1;jettySize=auto;html=1;rounded=0;fontSize=5;" parent="1" edge="1">
                    <mxGeometry width="100" relative="1" as="geometry">
                        <mxPoint x="790.01" y="590" as="sourcePoint"/>
                        <mxPoint x="1000.01" y="520" as="targetPoint"/>
                        <Array as="points">
                            <mxPoint x="930.01" y="590"/>
                            <mxPoint x="930.01" y="520"/>
                        </Array>
                    </mxGeometry>
                </mxCell>
                <mxCell id="130" value="" style="edgeStyle=orthogonalEdgeStyle;orthogonalLoop=1;jettySize=auto;html=1;rounded=0;fontSize=5;" parent="1" target="128" edge="1">
                    <mxGeometry width="100" relative="1" as="geometry">
                        <mxPoint x="851.01" y="631.0000000000001" as="sourcePoint"/>
                        <mxPoint x="990.01" y="540" as="targetPoint"/>
                        <Array as="points">
                            <mxPoint x="970.01" y="631"/>
                            <mxPoint x="970.01" y="540"/>
                        </Array>
                    </mxGeometry>
                </mxCell>
                <mxCell id="131" value="" style="edgeStyle=orthogonalEdgeStyle;orthogonalLoop=1;jettySize=auto;html=1;rounded=0;fontSize=5;entryX=0.875;entryY=1;entryDx=0;entryDy=0;entryPerimeter=0;" parent="1" target="128" edge="1">
                    <mxGeometry width="100" relative="1" as="geometry">
                        <mxPoint x="850.01" y="710" as="sourcePoint"/>
                        <mxPoint x="980.01" y="550" as="targetPoint"/>
                        <Array as="points">
                            <mxPoint x="851.01" y="710"/>
                            <mxPoint x="980.01" y="710"/>
                            <mxPoint x="980.01" y="560"/>
                        </Array>
                    </mxGeometry>
                </mxCell>
                <mxCell id="133" style="edgeStyle=orthogonalEdgeStyle;rounded=0;html=1;exitX=0.5;exitY=0;exitDx=0;exitDy=0;fontSize=10;" parent="1" edge="1">
                    <mxGeometry relative="1" as="geometry">
                        <mxPoint x="1040.01" y="480" as="targetPoint"/>
                        <mxPoint x="960.01" y="479.86" as="sourcePoint"/>
                        <Array as="points">
                            <mxPoint x="1030.01" y="480"/>
                        </Array>
                    </mxGeometry>
                </mxCell>
                <mxCell id="136" style="edgeStyle=orthogonalEdgeStyle;rounded=0;html=1;exitX=0.5;exitY=0;exitDx=0;exitDy=0;fontSize=5;" parent="1" source="134" edge="1">
                    <mxGeometry relative="1" as="geometry">
                        <mxPoint x="1170.01" y="460" as="targetPoint"/>
                        <Array as="points">
                            <mxPoint x="1060.01" y="460"/>
                        </Array>
                    </mxGeometry>
                </mxCell>
                <mxCell id="134" value="M&lt;br&gt;U&lt;br&gt;X" style="shape=trapezoid;perimeter=trapezoidPerimeter;whiteSpace=wrap;html=1;fixedSize=1;direction=south;" parent="1" vertex="1">
                    <mxGeometry x="1040.01" y="429" width="20" height="60" as="geometry"/>
                </mxCell>
                <mxCell id="135" style="edgeStyle=orthogonalEdgeStyle;rounded=0;html=1;exitX=0.5;exitY=0;exitDx=0;exitDy=0;fontSize=10;entryX=0;entryY=0.5;entryDx=0;entryDy=0;" parent="1" target="134" edge="1">
                    <mxGeometry relative="1" as="geometry">
                        <mxPoint x="1090.01" y="420.14" as="targetPoint"/>
                        <mxPoint x="1010.01" y="420" as="sourcePoint"/>
                        <Array as="points">
                            <mxPoint x="1050.01" y="420"/>
                        </Array>
                    </mxGeometry>
                </mxCell>
                <mxCell id="137" value="" style="edgeStyle=orthogonalEdgeStyle;orthogonalLoop=1;jettySize=auto;html=1;rounded=0;" parent="1" edge="1">
                    <mxGeometry width="100" relative="1" as="geometry">
                        <mxPoint x="790.01" y="670" as="sourcePoint"/>
                        <mxPoint x="1010.01" y="690" as="targetPoint"/>
                        <Array as="points">
                            <mxPoint x="930.01" y="670"/>
                            <mxPoint x="930.01" y="690"/>
                        </Array>
                    </mxGeometry>
                </mxCell>
                <mxCell id="138" value="&amp;lt;&amp;lt;1" style="ellipse;whiteSpace=wrap;html=1;fontSize=9;fillColor=#d5e8d4;gradientColor=#97d077;strokeColor=#82b366;" parent="1" vertex="1">
                    <mxGeometry x="940.01" y="640" width="20" height="20" as="geometry"/>
                </mxCell>
                <mxCell id="139" value="" style="group" parent="1" vertex="1" connectable="0">
                    <mxGeometry x="1010.01" y="640" width="35" height="60" as="geometry"/>
                </mxCell>
                <mxCell id="140" value="" style="endArrow=none;html=1;" parent="139" edge="1">
                    <mxGeometry width="50" height="50" relative="1" as="geometry">
                        <mxPoint y="20" as="sourcePoint"/>
                        <mxPoint as="targetPoint"/>
                    </mxGeometry>
                </mxCell>
                <mxCell id="141" value="" style="endArrow=none;html=1;" parent="139" edge="1">
                    <mxGeometry width="50" height="50" relative="1" as="geometry">
                        <mxPoint x="31.11111111111111" y="40" as="sourcePoint"/>
                        <mxPoint x="31.11111111111111" y="20" as="targetPoint"/>
                    </mxGeometry>
                </mxCell>
                <mxCell id="142" value="" style="endArrow=none;html=1;" parent="139" edge="1">
                    <mxGeometry width="50" height="50" relative="1" as="geometry">
                        <mxPoint x="31.11111111111111" y="20" as="sourcePoint"/>
                        <mxPoint as="targetPoint"/>
                    </mxGeometry>
                </mxCell>
                <mxCell id="143" value="" style="endArrow=none;html=1;" parent="139" edge="1">
                    <mxGeometry width="50" height="50" relative="1" as="geometry">
                        <mxPoint x="31.11111111111111" y="40" as="sourcePoint"/>
                        <mxPoint y="60" as="targetPoint"/>
                    </mxGeometry>
                </mxCell>
                <mxCell id="144" value="" style="endArrow=none;html=1;" parent="139" edge="1">
                    <mxGeometry width="50" height="50" relative="1" as="geometry">
                        <mxPoint y="60" as="sourcePoint"/>
                        <mxPoint y="40" as="targetPoint"/>
                    </mxGeometry>
                </mxCell>
                <mxCell id="145" value="" style="endArrow=none;html=1;" parent="139" edge="1">
                    <mxGeometry width="50" height="50" relative="1" as="geometry">
                        <mxPoint y="40" as="sourcePoint"/>
                        <mxPoint x="7.777777777777778" y="30" as="targetPoint"/>
                    </mxGeometry>
                </mxCell>
                <mxCell id="146" value="" style="endArrow=none;html=1;" parent="139" edge="1">
                    <mxGeometry width="50" height="50" relative="1" as="geometry">
                        <mxPoint x="7.777777777777778" y="30" as="sourcePoint"/>
                        <mxPoint y="20" as="targetPoint"/>
                    </mxGeometry>
                </mxCell>
                <mxCell id="147" value="Add" style="text;html=1;align=center;verticalAlign=middle;resizable=0;points=[];autosize=1;strokeColor=none;fillColor=none;" parent="139" vertex="1">
                    <mxGeometry y="15" width="40" height="30" as="geometry"/>
                </mxCell>
                <mxCell id="148" value="" style="edgeStyle=orthogonalEdgeStyle;orthogonalLoop=1;jettySize=auto;html=1;rounded=0;entryX=0;entryY=0.5;entryDx=0;entryDy=0;" parent="1" target="138" edge="1">
                    <mxGeometry width="100" relative="1" as="geometry">
                        <mxPoint x="930.01" y="590" as="sourcePoint"/>
                        <mxPoint x="926.01" y="609.9" as="targetPoint"/>
                        <Array as="points">
                            <mxPoint x="930.01" y="650"/>
                        </Array>
                    </mxGeometry>
                </mxCell>
                <mxCell id="149" value="" style="edgeStyle=orthogonalEdgeStyle;orthogonalLoop=1;jettySize=auto;html=1;rounded=0;exitX=1;exitY=0.5;exitDx=0;exitDy=0;" parent="1" source="138" edge="1">
                    <mxGeometry width="100" relative="1" as="geometry">
                        <mxPoint x="1020.01" y="589.86" as="sourcePoint"/>
                        <mxPoint x="1010.01" y="650" as="targetPoint"/>
                        <Array as="points">
                            <mxPoint x="1000.01" y="650"/>
                            <mxPoint x="1000.01" y="650"/>
                        </Array>
                    </mxGeometry>
                </mxCell>
                <mxCell id="150" value="" style="edgeStyle=orthogonalEdgeStyle;orthogonalLoop=1;jettySize=auto;html=1;rounded=0;" parent="1" edge="1">
                    <mxGeometry width="100" relative="1" as="geometry">
                        <mxPoint x="900.01" y="470" as="sourcePoint"/>
                        <mxPoint x="1010.01" y="580" as="targetPoint"/>
                        <Array as="points">
                            <mxPoint x="900.01" y="580"/>
                        </Array>
                    </mxGeometry>
                </mxCell>
                <mxCell id="151" value="" style="group" parent="1" vertex="1" connectable="0">
                    <mxGeometry x="1010.01" y="570" width="35" height="60" as="geometry"/>
                </mxCell>
                <mxCell id="152" value="" style="endArrow=none;html=1;" parent="151" edge="1">
                    <mxGeometry width="50" height="50" relative="1" as="geometry">
                        <mxPoint y="20" as="sourcePoint"/>
                        <mxPoint as="targetPoint"/>
                    </mxGeometry>
                </mxCell>
                <mxCell id="153" value="" style="endArrow=none;html=1;" parent="151" edge="1">
                    <mxGeometry width="50" height="50" relative="1" as="geometry">
                        <mxPoint x="31.11111111111111" y="40" as="sourcePoint"/>
                        <mxPoint x="31.11111111111111" y="20" as="targetPoint"/>
                    </mxGeometry>
                </mxCell>
                <mxCell id="154" value="" style="endArrow=none;html=1;" parent="151" edge="1">
                    <mxGeometry width="50" height="50" relative="1" as="geometry">
                        <mxPoint x="31.11111111111111" y="20" as="sourcePoint"/>
                        <mxPoint as="targetPoint"/>
                    </mxGeometry>
                </mxCell>
                <mxCell id="155" value="" style="endArrow=none;html=1;" parent="151" edge="1">
                    <mxGeometry width="50" height="50" relative="1" as="geometry">
                        <mxPoint x="31.11111111111111" y="40" as="sourcePoint"/>
                        <mxPoint y="60" as="targetPoint"/>
                    </mxGeometry>
                </mxCell>
                <mxCell id="156" value="" style="endArrow=none;html=1;" parent="151" edge="1">
                    <mxGeometry width="50" height="50" relative="1" as="geometry">
                        <mxPoint y="60" as="sourcePoint"/>
                        <mxPoint y="40" as="targetPoint"/>
                    </mxGeometry>
                </mxCell>
                <mxCell id="157" value="" style="endArrow=none;html=1;" parent="151" edge="1">
                    <mxGeometry width="50" height="50" relative="1" as="geometry">
                        <mxPoint y="40" as="sourcePoint"/>
                        <mxPoint x="7.777777777777778" y="30" as="targetPoint"/>
                    </mxGeometry>
                </mxCell>
                <mxCell id="158" value="" style="endArrow=none;html=1;" parent="151" edge="1">
                    <mxGeometry width="50" height="50" relative="1" as="geometry">
                        <mxPoint x="7.777777777777778" y="30" as="sourcePoint"/>
                        <mxPoint y="20" as="targetPoint"/>
                    </mxGeometry>
                </mxCell>
                <mxCell id="159" value="Add" style="text;html=1;align=center;verticalAlign=middle;resizable=0;points=[];autosize=1;strokeColor=none;fillColor=none;" parent="151" vertex="1">
                    <mxGeometry y="15" width="40" height="30" as="geometry"/>
                </mxCell>
                <mxCell id="169" value="" style="edgeStyle=orthogonalEdgeStyle;orthogonalLoop=1;jettySize=auto;html=1;rounded=0;" parent="1" edge="1">
                    <mxGeometry width="100" relative="1" as="geometry">
                        <mxPoint x="930.01" y="620" as="sourcePoint"/>
                        <mxPoint x="1010.01" y="620" as="targetPoint"/>
                        <Array as="points">
                            <mxPoint x="1000.01" y="620"/>
                            <mxPoint x="1000.01" y="620"/>
                        </Array>
                    </mxGeometry>
                </mxCell>
                <mxCell id="174" value="" style="edgeStyle=orthogonalEdgeStyle;rounded=0;html=1;fontSize=5;entryX=0.167;entryY=1;entryDx=0;entryDy=0;entryPerimeter=0;" parent="1" source="170" target="173" edge="1">
                    <mxGeometry relative="1" as="geometry"/>
                </mxCell>
                <mxCell id="170" value="&amp;lt;&amp;lt;1" style="ellipse;whiteSpace=wrap;html=1;fontSize=9;fillColor=#d5e8d4;gradientColor=#97d077;strokeColor=#82b366;" parent="1" vertex="1">
                    <mxGeometry x="1060.01" y="590" width="20" height="20" as="geometry"/>
                </mxCell>
                <mxCell id="171" value="" style="edgeStyle=orthogonalEdgeStyle;orthogonalLoop=1;jettySize=auto;html=1;rounded=0;entryX=0;entryY=0.5;entryDx=0;entryDy=0;" parent="1" target="170" edge="1">
                    <mxGeometry width="100" relative="1" as="geometry">
                        <mxPoint x="1040.01" y="600" as="sourcePoint"/>
                        <mxPoint x="1060.01" y="570" as="targetPoint"/>
                        <Array as="points"/>
                    </mxGeometry>
                </mxCell>
                <mxCell id="172" style="edgeStyle=orthogonalEdgeStyle;rounded=0;html=1;fontSize=10;entryX=0;entryY=0.5;entryDx=0;entryDy=0;" parent="1" target="173" edge="1">
                    <mxGeometry relative="1" as="geometry">
                        <mxPoint x="1100.01" y="590" as="targetPoint"/>
                        <mxPoint x="1050.01" y="420" as="sourcePoint"/>
                        <Array as="points">
                            <mxPoint x="1110.01" y="420"/>
                        </Array>
                    </mxGeometry>
                </mxCell>
                <mxCell id="181" style="edgeStyle=orthogonalEdgeStyle;rounded=0;html=1;exitX=0.5;exitY=0;exitDx=0;exitDy=0;fontSize=5;" parent="1" source="173" edge="1">
                    <mxGeometry relative="1" as="geometry">
                        <mxPoint x="1170.01" y="620.2857142857143" as="targetPoint"/>
                    </mxGeometry>
                </mxCell>
                <mxCell id="173" value="M&lt;br&gt;U&lt;br&gt;X" style="shape=trapezoid;perimeter=trapezoidPerimeter;whiteSpace=wrap;html=1;fixedSize=1;direction=south;" parent="1" vertex="1">
                    <mxGeometry x="1100.01" y="590" width="20" height="60" as="geometry"/>
                </mxCell>
                <mxCell id="178" value="" style="edgeStyle=orthogonalEdgeStyle;rounded=0;html=1;fontSize=5;entryX=0.833;entryY=1;entryDx=0;entryDy=0;entryPerimeter=0;" parent="1" target="173" edge="1">
                    <mxGeometry relative="1" as="geometry">
                        <mxPoint x="1040.00997999998" y="669.9999999999999" as="sourcePoint"/>
                        <mxPoint x="1070.01" y="640" as="targetPoint"/>
                    </mxGeometry>
                </mxCell>
                <mxCell id="180" value="&lt;span style=&quot;&quot;&gt;JJAL[2:0]&lt;/span&gt;" style="text;html=1;align=center;verticalAlign=middle;resizable=0;points=[];autosize=1;strokeColor=none;fillColor=none;fontSize=5;" parent="1" vertex="1">
                    <mxGeometry x="1007.51" y="400" width="40" height="20" as="geometry"/>
                </mxCell>
                <mxCell id="182" value="condition_en" style="text;html=1;align=center;verticalAlign=middle;resizable=0;points=[];autosize=1;strokeColor=none;fillColor=none;fontSize=5;" parent="1" vertex="1">
                    <mxGeometry x="1115.01" y="440" width="50" height="20" as="geometry"/>
                </mxCell>
                <mxCell id="183" value="alu_result" style="text;html=1;align=center;verticalAlign=middle;resizable=0;points=[];autosize=1;strokeColor=none;fillColor=none;fontSize=5;" parent="1" vertex="1">
                    <mxGeometry x="1115.01" y="510" width="50" height="20" as="geometry"/>
                </mxCell>
                <mxCell id="184" value="instruction_addr" style="text;html=1;align=center;verticalAlign=middle;resizable=0;points=[];autosize=1;strokeColor=none;fillColor=none;fontSize=5;" parent="1" vertex="1">
                    <mxGeometry x="1110.01" y="600" width="60" height="20" as="geometry"/>
                </mxCell>
                <mxCell id="185" value="" style="edgeStyle=orthogonalEdgeStyle;orthogonalLoop=1;jettySize=auto;html=1;rounded=0;exitX=1.012;exitY=0.837;exitDx=0;exitDy=0;exitPerimeter=0;" parent="1" edge="1">
                    <mxGeometry width="100" relative="1" as="geometry">
                        <mxPoint x="680.49" y="640.01" as="sourcePoint"/>
                        <mxPoint x="1170.01" y="660" as="targetPoint"/>
                        <Array as="points">
                            <mxPoint x="690.01" y="640"/>
                            <mxPoint x="690.01" y="760"/>
                            <mxPoint x="1130.01" y="760"/>
                            <mxPoint x="1130.01" y="660"/>
                            <mxPoint x="1170.01" y="660"/>
                        </Array>
                    </mxGeometry>
                </mxCell>
                <mxCell id="186" value="" style="edgeStyle=orthogonalEdgeStyle;orthogonalLoop=1;jettySize=auto;html=1;rounded=0;" parent="1" target="4" edge="1">
                    <mxGeometry width="100" relative="1" as="geometry">
                        <mxPoint x="780.01" y="560" as="sourcePoint"/>
                        <mxPoint x="1160.01" y="640" as="targetPoint"/>
                        <Array as="points">
                            <mxPoint x="780.01" y="560"/>
                            <mxPoint x="780.01" y="750"/>
                            <mxPoint x="1120.01" y="750"/>
                            <mxPoint x="1120.01" y="640"/>
                        </Array>
                    </mxGeometry>
                </mxCell>
                <mxCell id="190" value="&lt;font style=&quot;font-size: 5px;&quot;&gt;rd&lt;/font&gt;" style="text;html=1;align=center;verticalAlign=middle;resizable=0;points=[];autosize=1;strokeColor=none;fillColor=none;fontSize=9;" parent="1" vertex="1">
                    <mxGeometry x="1135.01" y="644" width="30" height="20" as="geometry"/>
                </mxCell>
                <mxCell id="191" value="&lt;font style=&quot;font-size: 5px;&quot;&gt;rs2_data&lt;/font&gt;" style="text;html=1;align=center;verticalAlign=middle;resizable=0;points=[];autosize=1;strokeColor=none;fillColor=none;fontSize=9;" parent="1" vertex="1">
                    <mxGeometry x="1130.01" y="622" width="40" height="20" as="geometry"/>
                </mxCell>
                <mxCell id="193" style="edgeStyle=elbowEdgeStyle;rounded=0;elbow=vertical;html=1;fontSize=9;" parent="1" edge="1">
                    <mxGeometry relative="1" as="geometry">
                        <mxPoint x="680.01" y="260" as="sourcePoint"/>
                        <mxPoint x="1170.01" y="260" as="targetPoint"/>
                        <Array as="points">
                            <mxPoint x="1140.01" y="260"/>
                        </Array>
                    </mxGeometry>
                </mxCell>
                <mxCell id="194" value="&lt;font style=&quot;font-size: 5px;&quot;&gt;To WB&lt;/font&gt;" style="text;html=1;align=center;verticalAlign=middle;resizable=0;points=[];autosize=1;strokeColor=none;fillColor=none;fontSize=9;" parent="1" vertex="1">
                    <mxGeometry x="903.01" y="242" width="40" height="20" as="geometry"/>
                </mxCell>
                <mxCell id="195" value="&lt;font style=&quot;font-size: 5px;&quot;&gt;RegWirte，MemtoReg&lt;/font&gt;" style="text;html=1;align=center;verticalAlign=middle;resizable=0;points=[];autosize=1;strokeColor=none;fillColor=none;fontSize=9;" parent="1" vertex="1">
                    <mxGeometry x="890.01" y="253" width="70" height="20" as="geometry"/>
                </mxCell>
                <mxCell id="196" style="edgeStyle=elbowEdgeStyle;rounded=0;elbow=vertical;html=1;exitX=1;exitY=0;exitDx=0;exitDy=0;entryX=0;entryY=0.041;entryDx=0;entryDy=0;entryPerimeter=0;fontSize=9;" parent="1" edge="1">
                    <mxGeometry relative="1" as="geometry">
                        <mxPoint x="680.0121356237307" y="300.0135931288083" as="sourcePoint"/>
                        <mxPoint x="1170.0100000000004" y="300.07" as="targetPoint"/>
                    </mxGeometry>
                </mxCell>
                <mxCell id="197" value="&lt;font style=&quot;font-size: 5px;&quot;&gt;To MEM&lt;/font&gt;" style="text;html=1;align=center;verticalAlign=middle;resizable=0;points=[];autosize=1;strokeColor=none;fillColor=none;fontSize=9;" parent="1" vertex="1">
                    <mxGeometry x="905.01" y="280" width="40" height="20" as="geometry"/>
                </mxCell>
                <mxCell id="198" value="&lt;font style=&quot;font-size: 5px;&quot;&gt;Branch，MemRead，MemWrite&lt;/font&gt;" style="text;html=1;align=center;verticalAlign=middle;resizable=0;points=[];autosize=1;strokeColor=none;fillColor=none;fontSize=9;" parent="1" vertex="1">
                    <mxGeometry x="873.01" y="297" width="100" height="20" as="geometry"/>
                </mxCell>
                <mxCell id="203" value="" style="verticalLabelPosition=bottom;shadow=0;dashed=0;align=center;html=1;verticalAlign=top;shape=mxgraph.electrical.logic_gates.logic_gate;operation=and;fontSize=5;" parent="1" vertex="1">
                    <mxGeometry x="1230.01" y="360" width="50" height="40" as="geometry"/>
                </mxCell>
                <mxCell id="205" style="edgeStyle=orthogonalEdgeStyle;rounded=0;html=1;fontSize=5;entryX=0;entryY=0.25;entryDx=0;entryDy=0;entryPerimeter=0;" parent="1" target="203" edge="1">
                    <mxGeometry relative="1" as="geometry">
                        <mxPoint x="1230.01" y="368" as="targetPoint"/>
                        <mxPoint x="1220.01" y="300" as="sourcePoint"/>
                        <Array as="points">
                            <mxPoint x="1220.01" y="300"/>
                            <mxPoint x="1220.01" y="370"/>
                        </Array>
                    </mxGeometry>
                </mxCell>
                <mxCell id="206" style="edgeStyle=orthogonalEdgeStyle;rounded=0;html=1;fontSize=5;entryX=0;entryY=0.75;entryDx=0;entryDy=0;entryPerimeter=0;" parent="1" target="203" edge="1">
                    <mxGeometry relative="1" as="geometry">
                        <mxPoint x="1290.01" y="430" as="targetPoint"/>
                        <mxPoint x="1210.01" y="460" as="sourcePoint"/>
                        <Array as="points">
                            <mxPoint x="1220.01" y="460"/>
                            <mxPoint x="1220.01" y="390"/>
                        </Array>
                    </mxGeometry>
                </mxCell>
                <mxCell id="207" style="edgeStyle=orthogonalEdgeStyle;rounded=0;html=1;exitX=1;exitY=0.14;exitDx=0;exitDy=0;fontSize=5;exitPerimeter=0;entryX=0;entryY=0.5;entryDx=0;entryDy=0;dashed=1;" parent="1" target="10" edge="1">
                    <mxGeometry relative="1" as="geometry">
                        <mxPoint x="140.01" y="390" as="targetPoint"/>
                        <mxPoint x="1280.01" y="380.03000000000003" as="sourcePoint"/>
                        <Array as="points">
                            <mxPoint x="1290.01" y="380"/>
                            <mxPoint x="1290.01" y="200"/>
                            <mxPoint x="70.00999999999999" y="200"/>
                        </Array>
                    </mxGeometry>
                </mxCell>
                <mxCell id="208" style="edgeStyle=orthogonalEdgeStyle;rounded=0;html=1;fontSize=5;exitX=1.006;exitY=0.512;exitDx=0;exitDy=0;exitPerimeter=0;entryX=0;entryY=0.75;entryDx=0;entryDy=0;" parent="1" target="209" edge="1">
                    <mxGeometry relative="1" as="geometry">
                        <mxPoint x="1280.01" y="880" as="targetPoint"/>
                        <mxPoint x="1210.2500000000002" y="640.1600000000001" as="sourcePoint"/>
                        <Array as="points">
                            <mxPoint x="1270" y="640"/>
                            <mxPoint x="1270" y="1090"/>
                        </Array>
                    </mxGeometry>
                </mxCell>
                <mxCell id="222" style="edgeStyle=orthogonalEdgeStyle;rounded=0;html=1;exitX=1;exitY=0.5;exitDx=0;exitDy=0;fontSize=9;entryX=0;entryY=0.75;entryDx=0;entryDy=0;" parent="1" source="209" target="5" edge="1">
                    <mxGeometry relative="1" as="geometry">
                        <mxPoint x="1480.01" y="560" as="targetPoint"/>
                        <Array as="points">
                            <mxPoint x="1480" y="1072"/>
                            <mxPoint x="1480" y="599"/>
                        </Array>
                    </mxGeometry>
                </mxCell>
                <mxCell id="209" value="Data&lt;br&gt;memory" style="rounded=0;whiteSpace=wrap;html=1;fontSize=9;fillColor=#dae8fc;strokeColor=#6c8ebf;" parent="1" vertex="1">
                    <mxGeometry x="1320.51" y="1000" width="119.49" height="120" as="geometry"/>
                </mxCell>
                <mxCell id="210" style="edgeStyle=orthogonalEdgeStyle;rounded=0;html=1;fontSize=5;exitX=1.006;exitY=0.512;exitDx=0;exitDy=0;exitPerimeter=0;entryX=0;entryY=0.25;entryDx=0;entryDy=0;" parent="1" target="209" edge="1">
                    <mxGeometry relative="1" as="geometry">
                        <mxPoint x="1320.01" y="840" as="targetPoint"/>
                        <mxPoint x="1210.2500000000002" y="530.0000000000001" as="sourcePoint"/>
                        <Array as="points">
                            <mxPoint x="1290" y="530"/>
                            <mxPoint x="1290" y="1030"/>
                        </Array>
                    </mxGeometry>
                </mxCell>
                <mxCell id="211" style="edgeStyle=orthogonalEdgeStyle;rounded=0;html=1;fontSize=5;" parent="1" edge="1">
                    <mxGeometry relative="1" as="geometry">
                        <mxPoint x="1520.01" y="660" as="targetPoint"/>
                        <mxPoint x="1210.01" y="660" as="sourcePoint"/>
                        <Array as="points"/>
                    </mxGeometry>
                </mxCell>
                <mxCell id="212" value="&lt;font style=&quot;font-size: 9px;&quot;&gt;alu_result&lt;/font&gt;" style="text;html=1;align=center;verticalAlign=middle;resizable=0;points=[];autosize=1;strokeColor=none;fillColor=none;fontSize=5;" parent="1" vertex="1">
                    <mxGeometry x="1210.01" y="510" width="60" height="20" as="geometry"/>
                </mxCell>
                <mxCell id="213" value="&lt;font style=&quot;font-size: 9px;&quot;&gt;rs2_data&lt;/font&gt;" style="text;html=1;align=center;verticalAlign=middle;resizable=0;points=[];autosize=1;strokeColor=none;fillColor=none;fontSize=5;" parent="1" vertex="1">
                    <mxGeometry x="1210.01" y="624" width="60" height="20" as="geometry"/>
                </mxCell>
                <mxCell id="214" style="edgeStyle=orthogonalEdgeStyle;rounded=0;html=1;fontSize=5;entryX=0.665;entryY=0;entryDx=0;entryDy=0;entryPerimeter=0;" parent="1" target="209" edge="1">
                    <mxGeometry relative="1" as="geometry">
                        <mxPoint x="1420.01" y="810" as="targetPoint"/>
                        <mxPoint x="1210.01" y="300" as="sourcePoint"/>
                        <Array as="points">
                            <mxPoint x="1400" y="300"/>
                        </Array>
                    </mxGeometry>
                </mxCell>
                <mxCell id="216" style="edgeStyle=orthogonalEdgeStyle;rounded=0;html=1;fontSize=5;entryX=0.33;entryY=0;entryDx=0;entryDy=0;entryPerimeter=0;" parent="1" target="209" edge="1">
                    <mxGeometry relative="1" as="geometry">
                        <mxPoint x="1370" y="820" as="targetPoint"/>
                        <mxPoint x="1360.01" y="300" as="sourcePoint"/>
                        <Array as="points"/>
                    </mxGeometry>
                </mxCell>
                <mxCell id="218" value="Address" style="text;html=1;align=center;verticalAlign=middle;resizable=0;points=[];autosize=1;strokeColor=none;fillColor=none;fontSize=5;" parent="1" vertex="1">
                    <mxGeometry x="1320.51" y="1020" width="40" height="20" as="geometry"/>
                </mxCell>
                <mxCell id="219" value="Write data" style="text;html=1;align=center;verticalAlign=middle;resizable=0;points=[];autosize=1;strokeColor=none;fillColor=none;fontSize=5;" parent="1" vertex="1">
                    <mxGeometry x="1315.51" y="1080" width="50" height="20" as="geometry"/>
                </mxCell>
                <mxCell id="220" value="MemRead" style="text;html=1;align=center;verticalAlign=middle;resizable=0;points=[];autosize=1;strokeColor=none;fillColor=none;fontSize=5;" parent="1" vertex="1">
                    <mxGeometry x="1335.51" y="1000" width="50" height="20" as="geometry"/>
                </mxCell>
                <mxCell id="221" value="MemWrite" style="text;html=1;align=center;verticalAlign=middle;resizable=0;points=[];autosize=1;strokeColor=none;fillColor=none;fontSize=5;" parent="1" vertex="1">
                    <mxGeometry x="1375.01" y="1000" width="50" height="20" as="geometry"/>
                </mxCell>
                <mxCell id="223" value="Read data" style="text;html=1;align=center;verticalAlign=middle;resizable=0;points=[];autosize=1;strokeColor=none;fillColor=none;fontSize=5;" parent="1" vertex="1">
                    <mxGeometry x="1400.51" y="1050" width="50" height="20" as="geometry"/>
                </mxCell>
                <mxCell id="225" style="edgeStyle=orthogonalEdgeStyle;rounded=0;html=1;fontSize=9;" parent="1" edge="1">
                    <mxGeometry relative="1" as="geometry">
                        <mxPoint x="1520.01" y="530" as="targetPoint"/>
                        <mxPoint x="1290.01" y="530" as="sourcePoint"/>
                        <Array as="points">
                            <mxPoint x="1290.01" y="530"/>
                            <mxPoint x="1370.01" y="530"/>
                        </Array>
                    </mxGeometry>
                </mxCell>
                <mxCell id="226" value="MemRead" style="text;html=1;align=center;verticalAlign=middle;resizable=0;points=[];autosize=1;strokeColor=none;fillColor=none;fontSize=9;" parent="1" vertex="1">
                    <mxGeometry x="1305.01" y="440" width="70" height="20" as="geometry"/>
                </mxCell>
                <mxCell id="227" value="MemWrite" style="text;html=1;align=center;verticalAlign=middle;resizable=0;points=[];autosize=1;strokeColor=none;fillColor=none;fontSize=9;" parent="1" vertex="1">
                    <mxGeometry x="1395.01" y="440" width="60" height="20" as="geometry"/>
                </mxCell>
                <mxCell id="228" style="edgeStyle=elbowEdgeStyle;rounded=0;elbow=vertical;html=1;exitX=1;exitY=0;exitDx=0;exitDy=0;fontSize=9;" parent="1" edge="1">
                    <mxGeometry relative="1" as="geometry">
                        <mxPoint x="1210.0121356237307" y="259.39359312880816" as="sourcePoint"/>
                        <mxPoint x="1520.01" y="259" as="targetPoint"/>
                    </mxGeometry>
                </mxCell>
                <mxCell id="229" value="&lt;font style=&quot;font-size: 5px;&quot;&gt;To WB&lt;/font&gt;" style="text;html=1;align=center;verticalAlign=middle;resizable=0;points=[];autosize=1;strokeColor=none;fillColor=none;fontSize=9;" parent="1" vertex="1">
                    <mxGeometry x="1358.01" y="242" width="40" height="20" as="geometry"/>
                </mxCell>
                <mxCell id="230" value="&lt;font style=&quot;font-size: 5px;&quot;&gt;RegWirte，MemtoReg&lt;/font&gt;" style="text;html=1;align=center;verticalAlign=middle;resizable=0;points=[];autosize=1;strokeColor=none;fillColor=none;fontSize=9;" parent="1" vertex="1">
                    <mxGeometry x="1345.01" y="253" width="70" height="20" as="geometry"/>
                </mxCell>
                <mxCell id="231" value="Branch" style="text;html=1;align=center;verticalAlign=middle;resizable=0;points=[];autosize=1;strokeColor=none;fillColor=none;fontSize=9;" parent="1" vertex="1">
                    <mxGeometry x="1215.01" y="327" width="50" height="20" as="geometry"/>
                </mxCell>
                <mxCell id="242" style="edgeStyle=orthogonalEdgeStyle;rounded=0;html=1;exitX=0.5;exitY=0;exitDx=0;exitDy=0;fontSize=9;dashed=1;" parent="1" source="232" edge="1">
                    <mxGeometry relative="1" as="geometry">
                        <mxPoint x="520.01" y="510" as="targetPoint"/>
                        <Array as="points">
                            <mxPoint x="1630.01" y="545"/>
                            <mxPoint x="1630.01" y="780"/>
                            <mxPoint x="470.01000000000005" y="780"/>
                            <mxPoint x="470.01000000000005" y="510"/>
                        </Array>
                    </mxGeometry>
                </mxCell>
                <mxCell id="232" value="M&lt;br&gt;U&lt;br&gt;X" style="shape=trapezoid;perimeter=trapezoidPerimeter;whiteSpace=wrap;html=1;fixedSize=1;direction=south;" parent="1" vertex="1">
                    <mxGeometry x="1580.01" y="500" width="40" height="90" as="geometry"/>
                </mxCell>
                <mxCell id="233" value="" style="edgeStyle=none;orthogonalLoop=1;jettySize=auto;html=1;rounded=0;fontSize=9;" parent="1" edge="1">
                    <mxGeometry width="100" relative="1" as="geometry">
                        <mxPoint x="1560.01" y="530" as="sourcePoint"/>
                        <mxPoint x="1580.01" y="530" as="targetPoint"/>
                        <Array as="points"/>
                    </mxGeometry>
                </mxCell>
                <mxCell id="234" value="" style="edgeStyle=orthogonalEdgeStyle;orthogonalLoop=1;jettySize=auto;html=1;rounded=0;fontSize=9;exitX=1;exitY=0.75;exitDx=0;exitDy=0;" parent="1" edge="1" source="5">
                    <mxGeometry width="100" relative="1" as="geometry">
                        <mxPoint x="1560.01" y="559.9" as="sourcePoint"/>
                        <mxPoint x="1580.01" y="559.9" as="targetPoint"/>
                        <Array as="points">
                            <mxPoint x="1570" y="600"/>
                            <mxPoint x="1570" y="560"/>
                        </Array>
                    </mxGeometry>
                </mxCell>
                <mxCell id="236" style="edgeStyle=elbowEdgeStyle;rounded=0;elbow=vertical;html=1;fontSize=9;entryX=0;entryY=0.5;entryDx=0;entryDy=0;" parent="1" target="232" edge="1">
                    <mxGeometry relative="1" as="geometry">
                        <mxPoint x="1560.01" y="260.39" as="sourcePoint"/>
                        <mxPoint x="1900.01" y="262" as="targetPoint"/>
                        <Array as="points">
                            <mxPoint x="1580.01" y="260"/>
                        </Array>
                    </mxGeometry>
                </mxCell>
                <mxCell id="239" value="&lt;font style=&quot;font-size: 5px;&quot;&gt;1&lt;/font&gt;" style="text;html=1;align=center;verticalAlign=middle;resizable=0;points=[];autosize=1;strokeColor=none;fillColor=none;fontSize=8;" parent="1" vertex="1">
                    <mxGeometry x="1570" y="550" width="30" height="20" as="geometry"/>
                </mxCell>
                <mxCell id="240" value="&lt;font style=&quot;font-size: 5px;&quot;&gt;0&lt;/font&gt;" style="text;html=1;align=center;verticalAlign=middle;resizable=0;points=[];autosize=1;strokeColor=none;fillColor=none;fontSize=8;" parent="1" vertex="1">
                    <mxGeometry x="1570" y="520" width="30" height="20" as="geometry"/>
                </mxCell>
                <mxCell id="241" style="edgeStyle=orthogonalEdgeStyle;rounded=0;html=1;fontSize=5;entryX=0;entryY=0.625;entryDx=0;entryDy=0;entryPerimeter=0;dashed=1;" parent="1" target="8" edge="1">
                    <mxGeometry relative="1" as="geometry">
                        <mxPoint x="470.01000000000005" y="750" as="targetPoint"/>
                        <mxPoint x="1560.01" y="660.2" as="sourcePoint"/>
                        <Array as="points">
                            <mxPoint x="1590.01" y="660"/>
                            <mxPoint x="1590.01" y="770"/>
                            <mxPoint x="460.01000000000005" y="770"/>
                            <mxPoint x="460.01000000000005" y="490"/>
                        </Array>
                    </mxGeometry>
                </mxCell>
                <mxCell id="243" value="Write data" style="text;html=1;align=center;verticalAlign=middle;resizable=0;points=[];autosize=1;strokeColor=none;fillColor=none;fontSize=5;" parent="1" vertex="1">
                    <mxGeometry x="509.01000000000005" y="499" width="50" height="20" as="geometry"/>
                </mxCell>
                <mxCell id="244" value="Write register" style="text;html=1;align=center;verticalAlign=middle;resizable=0;points=[];autosize=1;strokeColor=none;fillColor=none;fontSize=5;" parent="1" vertex="1">
                    <mxGeometry x="510.01000000000005" y="480" width="50" height="20" as="geometry"/>
                </mxCell>
                <mxCell id="245" value="MemtoReg" style="text;html=1;align=center;verticalAlign=middle;resizable=0;points=[];autosize=1;strokeColor=none;fillColor=none;fontSize=9;" parent="1" vertex="1">
                    <mxGeometry x="1580.01" y="468" width="70" height="20" as="geometry"/>
                </mxCell>
                <mxCell id="246" style="edgeStyle=elbowEdgeStyle;rounded=0;elbow=vertical;html=1;fontSize=9;entryX=0.5;entryY=0;entryDx=0;entryDy=0;dashed=1;" parent="1" target="8" edge="1">
                    <mxGeometry relative="1" as="geometry">
                        <mxPoint x="1600.01" y="260" as="sourcePoint"/>
                        <mxPoint x="1180.01" y="150" as="targetPoint"/>
                        <Array as="points">
                            <mxPoint x="1060.01" y="220"/>
                        </Array>
                    </mxGeometry>
                </mxCell>
                <mxCell id="247" value="RegWrite" style="text;html=1;align=center;verticalAlign=middle;resizable=0;points=[];autosize=1;strokeColor=none;fillColor=none;fontSize=9;" parent="1" vertex="1">
                    <mxGeometry x="550.01" y="414" width="60" height="20" as="geometry"/>
                </mxCell>
                <mxCell id="248" value="&lt;font style=&quot;font-size: 9px;&quot;&gt;rd&lt;/font&gt;" style="text;html=1;align=center;verticalAlign=middle;resizable=0;points=[];autosize=1;strokeColor=none;fillColor=none;fontSize=9;" parent="1" vertex="1">
                    <mxGeometry x="1417.51" y="644" width="30" height="20" as="geometry"/>
                </mxCell>
                <mxCell id="249" value="&lt;font style=&quot;font-size: 9px;&quot;&gt;rd&lt;/font&gt;" style="text;html=1;align=center;verticalAlign=middle;resizable=0;points=[];autosize=1;strokeColor=none;fillColor=none;fontSize=9;" parent="1" vertex="1">
                    <mxGeometry x="1560.01" y="644" width="30" height="20" as="geometry"/>
                </mxCell>
                <mxCell id="250" value="Hazard&lt;br&gt;Detection&lt;br&gt;Unit" style="ellipse;whiteSpace=wrap;html=1;fillColor=#e1d5e7;strokeColor=#9673a6;" vertex="1" parent="1">
                    <mxGeometry x="610.01" y="80" width="80" height="80" as="geometry"/>
                </mxCell>
                <mxCell id="251" value="Forwarding&lt;br&gt;Unit" style="ellipse;whiteSpace=wrap;html=1;fillColor=#f8cecc;strokeColor=#b85450;" vertex="1" parent="1">
                    <mxGeometry x="1040.01" y="800" width="80" height="80" as="geometry"/>
                </mxCell>
                <mxCell id="252" value="" style="edgeStyle=orthogonalEdgeStyle;orthogonalLoop=1;jettySize=auto;html=1;rounded=0;fontSize=9;elbow=vertical;entryX=0;entryY=0.896;entryDx=0;entryDy=0;entryPerimeter=0;" edge="1" parent="1" target="3">
                    <mxGeometry width="100" relative="1" as="geometry">
                        <mxPoint x="490.01000000000005" y="450" as="sourcePoint"/>
                        <mxPoint x="630.01" y="670" as="targetPoint"/>
                        <Array as="points">
                            <mxPoint x="490.01000000000005" y="450"/>
                            <mxPoint x="490.01000000000005" y="670"/>
                        </Array>
                    </mxGeometry>
                </mxCell>
                <mxCell id="253" value="" style="edgeStyle=orthogonalEdgeStyle;orthogonalLoop=1;jettySize=auto;html=1;rounded=0;" edge="1" parent="1">
                    <mxGeometry width="100" relative="1" as="geometry">
                        <mxPoint x="480.01000000000005" y="470" as="sourcePoint"/>
                        <mxPoint x="640.01" y="700" as="targetPoint"/>
                        <Array as="points">
                            <mxPoint x="480.01000000000005" y="700"/>
                        </Array>
                    </mxGeometry>
                </mxCell>
                <mxCell id="254" value="rs1" style="text;html=1;align=center;verticalAlign=middle;resizable=0;points=[];autosize=1;strokeColor=none;fillColor=none;fontSize=9;" vertex="1" parent="1">
                    <mxGeometry x="539.01" y="650" width="40" height="20" as="geometry"/>
                </mxCell>
                <mxCell id="256" value="rs2" style="text;html=1;align=center;verticalAlign=middle;resizable=0;points=[];autosize=1;strokeColor=none;fillColor=none;fontSize=9;" vertex="1" parent="1">
                    <mxGeometry x="539.01" y="680" width="40" height="20" as="geometry"/>
                </mxCell>
                <mxCell id="257" value="" style="edgeStyle=orthogonalEdgeStyle;orthogonalLoop=1;jettySize=auto;html=1;rounded=0;exitX=1;exitY=0.894;exitDx=0;exitDy=0;exitPerimeter=0;fillColor=#ffcd28;strokeColor=#d79b00;gradientColor=#ffa500;entryX=0;entryY=0.625;entryDx=0;entryDy=0;entryPerimeter=0;" edge="1" parent="1" source="3" target="251">
                    <mxGeometry width="100" relative="1" as="geometry">
                        <mxPoint x="700.01" y="670" as="sourcePoint"/>
                        <mxPoint x="940.01" y="830" as="targetPoint"/>
                        <Array as="points">
                            <mxPoint x="710.01" y="669"/>
                            <mxPoint x="710.01" y="850"/>
                        </Array>
                    </mxGeometry>
                </mxCell>
                <mxCell id="258" value="" style="edgeStyle=orthogonalEdgeStyle;orthogonalLoop=1;jettySize=auto;html=1;rounded=0;exitX=1;exitY=0.894;exitDx=0;exitDy=0;exitPerimeter=0;fillColor=#ffcd28;strokeColor=#d79b00;gradientColor=#ffa500;" edge="1" parent="1" target="251">
                    <mxGeometry width="100" relative="1" as="geometry">
                        <mxPoint x="680.01" y="700.0000000000001" as="sourcePoint"/>
                        <mxPoint x="900.01" y="840.88" as="targetPoint"/>
                        <Array as="points">
                            <mxPoint x="700.01" y="700"/>
                            <mxPoint x="700.01" y="870"/>
                        </Array>
                    </mxGeometry>
                </mxCell>
                <mxCell id="259" value="" style="edgeStyle=orthogonalEdgeStyle;orthogonalLoop=1;jettySize=auto;html=1;rounded=0;fillColor=#ffcd28;strokeColor=#d79b00;gradientColor=#ffa500;entryX=1;entryY=0.625;entryDx=0;entryDy=0;entryPerimeter=0;" edge="1" parent="1" target="251">
                    <mxGeometry width="100" relative="1" as="geometry">
                        <mxPoint x="1220.01" y="660" as="sourcePoint"/>
                        <mxPoint x="1140.01" y="840" as="targetPoint"/>
                        <Array as="points">
                            <mxPoint x="1220.01" y="850"/>
                        </Array>
                    </mxGeometry>
                </mxCell>
                <mxCell id="260" value="" style="edgeStyle=orthogonalEdgeStyle;orthogonalLoop=1;jettySize=auto;html=1;rounded=0;fillColor=#ffcd28;strokeColor=#d79b00;gradientColor=#ffa500;" edge="1" parent="1">
                    <mxGeometry width="100" relative="1" as="geometry">
                        <mxPoint x="1170.01" y="770" as="sourcePoint"/>
                        <mxPoint x="1120.01" y="830" as="targetPoint"/>
                        <Array as="points">
                            <mxPoint x="1170.01" y="830"/>
                        </Array>
                    </mxGeometry>
                </mxCell>
                <mxCell id="261" value="" style="edgeStyle=orthogonalEdgeStyle;orthogonalLoop=1;jettySize=auto;html=1;rounded=0;fillColor=#ffcd28;strokeColor=#d79b00;gradientColor=#ffa500;" edge="1" parent="1" target="251">
                    <mxGeometry width="100" relative="1" as="geometry">
                        <mxPoint x="1140.01" y="260" as="sourcePoint"/>
                        <mxPoint x="1130.01" y="810" as="targetPoint"/>
                        <Array as="points">
                            <mxPoint x="1140.01" y="810"/>
                        </Array>
                    </mxGeometry>
                </mxCell>
                <mxCell id="262" value="" style="edgeStyle=orthogonalEdgeStyle;orthogonalLoop=1;jettySize=auto;html=1;rounded=0;fillColor=#ffcd28;strokeColor=#d79b00;gradientColor=#ffa500;" edge="1" parent="1" target="251">
                    <mxGeometry width="100" relative="1" as="geometry">
                        <mxPoint x="1490.01" y="260" as="sourcePoint"/>
                        <mxPoint x="1140.01" y="870" as="targetPoint"/>
                        <Array as="points">
                            <mxPoint x="1490" y="870"/>
                        </Array>
                    </mxGeometry>
                </mxCell>
                <mxCell id="263" value="" style="edgeStyle=orthogonalEdgeStyle;orthogonalLoop=1;jettySize=auto;html=1;rounded=0;fillColor=#ffcd28;strokeColor=#d79b00;gradientColor=#ffa500;entryX=1;entryY=0.5;entryDx=0;entryDy=0;exitX=0;exitY=0.375;exitDx=0;exitDy=0;exitPerimeter=0;" edge="1" parent="1" source="251" target="71">
                    <mxGeometry width="100" relative="1" as="geometry">
                        <mxPoint x="1030.01" y="830" as="sourcePoint"/>
                        <mxPoint x="730.01" y="800" as="targetPoint"/>
                        <Array as="points">
                            <mxPoint x="750.01" y="830"/>
                        </Array>
                    </mxGeometry>
                </mxCell>
                <mxCell id="264" value="" style="edgeStyle=orthogonalEdgeStyle;orthogonalLoop=1;jettySize=auto;html=1;rounded=0;fillColor=#ffcd28;strokeColor=#d79b00;gradientColor=#ffa500;entryX=1;entryY=0.5;entryDx=0;entryDy=0;" edge="1" parent="1" source="251" target="70">
                    <mxGeometry width="100" relative="1" as="geometry">
                        <mxPoint x="1060.01" y="809" as="sourcePoint"/>
                        <mxPoint x="750.01" y="480" as="targetPoint"/>
                        <Array as="points">
                            <mxPoint x="770.01" y="810"/>
                            <mxPoint x="770.01" y="500"/>
                            <mxPoint x="750.01" y="500"/>
                        </Array>
                    </mxGeometry>
                </mxCell>
                <mxCell id="265" value="" style="edgeStyle=orthogonalEdgeStyle;orthogonalLoop=1;jettySize=auto;html=1;rounded=0;fillColor=#f8cecc;gradientColor=#ea6b66;strokeColor=#b85450;entryX=1;entryY=0.625;entryDx=0;entryDy=0;entryPerimeter=0;" edge="1" parent="1" target="250">
                    <mxGeometry width="100" relative="1" as="geometry">
                        <mxPoint x="759.4399999999999" y="300" as="sourcePoint"/>
                        <mxPoint x="759.4399999999999" y="130" as="targetPoint"/>
                        <Array as="points">
                            <mxPoint x="759.01" y="130"/>
                        </Array>
                    </mxGeometry>
                </mxCell>
                <mxCell id="266" value="" style="edgeStyle=orthogonalEdgeStyle;orthogonalLoop=1;jettySize=auto;html=1;rounded=0;fillColor=#f8cecc;gradientColor=#ea6b66;strokeColor=#b85450;" edge="1" parent="1" target="250">
                    <mxGeometry width="100" relative="1" as="geometry">
                        <mxPoint x="1130.01" y="659.9999999999999" as="sourcePoint"/>
                        <mxPoint x="1110.01" y="110" as="targetPoint"/>
                        <Array as="points">
                            <mxPoint x="1130.01" y="110"/>
                        </Array>
                    </mxGeometry>
                </mxCell>
                <mxCell id="267" value="" style="edgeStyle=orthogonalEdgeStyle;orthogonalLoop=1;jettySize=auto;html=1;rounded=0;fillColor=#f8cecc;gradientColor=#ea6b66;strokeColor=#b85450;entryX=0;entryY=0.375;entryDx=0;entryDy=0;entryPerimeter=0;" edge="1" parent="1" target="250">
                    <mxGeometry width="100" relative="1" as="geometry">
                        <mxPoint x="459.4399999999999" y="449" as="sourcePoint"/>
                        <mxPoint x="560.01" y="110" as="targetPoint"/>
                        <Array as="points">
                            <mxPoint x="459.01000000000005" y="279"/>
                            <mxPoint x="460.01000000000005" y="279"/>
                            <mxPoint x="460.01000000000005" y="110"/>
                        </Array>
                    </mxGeometry>
                </mxCell>
                <mxCell id="268" value="" style="edgeStyle=orthogonalEdgeStyle;orthogonalLoop=1;jettySize=auto;html=1;rounded=0;fillColor=#f8cecc;gradientColor=#ea6b66;strokeColor=#b85450;" edge="1" parent="1">
                    <mxGeometry width="100" relative="1" as="geometry">
                        <mxPoint x="469.73999999999984" y="470" as="sourcePoint"/>
                        <mxPoint x="610" y="131" as="targetPoint"/>
                        <Array as="points">
                            <mxPoint x="469.31" y="300"/>
                            <mxPoint x="470.31" y="300"/>
                            <mxPoint x="470.31" y="131"/>
                        </Array>
                    </mxGeometry>
                </mxCell>
                <mxCell id="269" value="" style="edgeStyle=orthogonalEdgeStyle;orthogonalLoop=1;jettySize=auto;html=1;rounded=0;fillColor=#f8cecc;gradientColor=#ea6b66;strokeColor=#b85450;exitX=0.14;exitY=0.875;exitDx=0;exitDy=0;exitPerimeter=0;entryX=0.119;entryY=0.264;entryDx=0;entryDy=0;entryPerimeter=0;" edge="1" parent="1" source="250" target="10">
                    <mxGeometry width="100" relative="1" as="geometry">
                        <mxPoint x="630.01" y="150" as="sourcePoint"/>
                        <mxPoint x="150.01" y="160" as="targetPoint"/>
                        <Array as="points">
                            <mxPoint x="80.00999999999999" y="150"/>
                            <mxPoint x="80.00999999999999" y="454"/>
                        </Array>
                    </mxGeometry>
                </mxCell>
                <mxCell id="273" style="edgeStyle=orthogonalEdgeStyle;rounded=0;html=1;exitX=0.5;exitY=0;exitDx=0;exitDy=0;entryX=0;entryY=0.539;entryDx=0;entryDy=0;entryPerimeter=0;" edge="1" parent="1" source="270" target="2">
                    <mxGeometry relative="1" as="geometry"/>
                </mxCell>
                <mxCell id="270" value="M&lt;br&gt;U&lt;br&gt;X" style="shape=trapezoid;perimeter=trapezoidPerimeter;whiteSpace=wrap;html=1;fixedSize=1;direction=south;" vertex="1" parent="1">
                    <mxGeometry x="290.01000000000005" y="459" width="30" height="80" as="geometry"/>
                </mxCell>
                <mxCell id="271" value="&lt;font style=&quot;font-size: 5px;&quot;&gt;1&lt;/font&gt;" style="text;html=1;align=center;verticalAlign=middle;resizable=0;points=[];autosize=1;strokeColor=none;fillColor=none;fontSize=8;" vertex="1" parent="1">
                    <mxGeometry x="278.01000000000005" y="469" width="30" height="20" as="geometry"/>
                </mxCell>
                <mxCell id="272" value="&lt;font style=&quot;font-size: 5px;&quot;&gt;0&lt;/font&gt;" style="text;html=1;align=center;verticalAlign=middle;resizable=0;points=[];autosize=1;strokeColor=none;fillColor=none;fontSize=8;" vertex="1" parent="1">
                    <mxGeometry x="278.01000000000005" y="508" width="30" height="20" as="geometry"/>
                </mxCell>
                <mxCell id="274" value="" style="edgeStyle=orthogonalEdgeStyle;orthogonalLoop=1;jettySize=auto;html=1;rounded=0;fillColor=#f8cecc;gradientColor=#ea6b66;strokeColor=#b85450;entryX=0.08;entryY=0.669;entryDx=0;entryDy=0;entryPerimeter=0;" edge="1" parent="1" target="270">
                    <mxGeometry width="100" relative="1" as="geometry">
                        <mxPoint x="370.01000000000005" y="150" as="sourcePoint"/>
                        <mxPoint x="-41.749999999999936" y="419.96999999999997" as="targetPoint"/>
                        <Array as="points"/>
                    </mxGeometry>
                </mxCell>
                <mxCell id="279" style="edgeStyle=orthogonalEdgeStyle;rounded=0;html=1;exitX=0.5;exitY=0;exitDx=0;exitDy=0;entryX=-0.005;entryY=0.041;entryDx=0;entryDy=0;entryPerimeter=0;" edge="1" parent="1" source="275" target="3">
                    <mxGeometry relative="1" as="geometry"/>
                </mxCell>
                <mxCell id="275" value="M&lt;br&gt;U&lt;br&gt;X" style="shape=trapezoid;perimeter=trapezoidPerimeter;whiteSpace=wrap;html=1;fixedSize=1;direction=south;" vertex="1" parent="1">
                    <mxGeometry x="610.01" y="230" width="20" height="60" as="geometry"/>
                </mxCell>
                <mxCell id="276" value="" style="edgeStyle=orthogonalEdgeStyle;orthogonalLoop=1;jettySize=auto;html=1;rounded=0;fillColor=#f8cecc;gradientColor=#ea6b66;strokeColor=#b85450;" edge="1" parent="1">
                    <mxGeometry width="100" relative="1" as="geometry">
                        <mxPoint x="620" y="150" as="sourcePoint"/>
                        <mxPoint x="620.01" y="240" as="targetPoint"/>
                        <Array as="points">
                            <mxPoint x="620.01" y="196"/>
                            <mxPoint x="620.01" y="196"/>
                        </Array>
                    </mxGeometry>
                </mxCell>
                <mxCell id="277" value="&lt;font style=&quot;font-size: 5px;&quot;&gt;1&lt;/font&gt;" style="text;html=1;align=center;verticalAlign=middle;resizable=0;points=[];autosize=1;strokeColor=none;fillColor=none;fontSize=8;" vertex="1" parent="1">
                    <mxGeometry x="598.01" y="240" width="30" height="20" as="geometry"/>
                </mxCell>
                <mxCell id="278" value="&lt;font style=&quot;font-size: 5px;&quot;&gt;0&lt;/font&gt;" style="text;html=1;align=center;verticalAlign=middle;resizable=0;points=[];autosize=1;strokeColor=none;fillColor=none;fontSize=8;" vertex="1" parent="1">
                    <mxGeometry x="598.01" y="259" width="30" height="20" as="geometry"/>
                </mxCell>
                <mxCell id="282" value="" style="edgeStyle=none;orthogonalLoop=1;jettySize=auto;html=1;rounded=0;" edge="1" parent="1">
                    <mxGeometry width="100" relative="1" as="geometry">
                        <mxPoint x="230.01" y="480" as="sourcePoint"/>
                        <mxPoint x="290.01000000000005" y="480" as="targetPoint"/>
                        <Array as="points"/>
                    </mxGeometry>
                </mxCell>
                <mxCell id="283" value="Nop" style="text;html=1;align=center;verticalAlign=middle;resizable=0;points=[];autosize=1;strokeColor=none;fillColor=none;" vertex="1" parent="1">
                    <mxGeometry x="233.01" y="458" width="50" height="30" as="geometry"/>
                </mxCell>
                <mxCell id="285" value="" style="edgeStyle=none;orthogonalLoop=1;jettySize=auto;html=1;rounded=0;entryX=0.333;entryY=1;entryDx=0;entryDy=0;entryPerimeter=0;" edge="1" parent="1" target="275">
                    <mxGeometry width="100" relative="1" as="geometry">
                        <mxPoint x="570.01" y="250" as="sourcePoint"/>
                        <mxPoint x="639.01" y="232" as="targetPoint"/>
                        <Array as="points"/>
                    </mxGeometry>
                </mxCell>
                <mxCell id="286" value="Zero" style="text;html=1;align=center;verticalAlign=middle;resizable=0;points=[];autosize=1;strokeColor=none;fillColor=none;fontSize=5;" vertex="1" parent="1">
                    <mxGeometry x="570.01" y="233" width="30" height="20" as="geometry"/>
                </mxCell>
                <mxCell id="287" style="edgeStyle=orthogonalEdgeStyle;rounded=0;html=1;fontSize=5;exitX=1;exitY=0.792;exitDx=0;exitDy=0;exitPerimeter=0;entryX=0.5;entryY=1;entryDx=0;entryDy=0;" edge="1" parent="1" source="4" target="10">
                    <mxGeometry relative="1" as="geometry">
                        <mxPoint x="80.00999999999999" y="530" as="targetPoint"/>
                        <mxPoint x="1220.01" y="620" as="sourcePoint"/>
                        <Array as="points">
                            <mxPoint x="1300" y="620"/>
                            <mxPoint x="1300" y="70"/>
                            <mxPoint x="20" y="70"/>
                            <mxPoint x="20" y="500"/>
                        </Array>
                    </mxGeometry>
                </mxCell>
                <mxCell id="289" value="" style="edgeStyle=orthogonalEdgeStyle;orthogonalLoop=1;jettySize=auto;html=1;rounded=0;fontSize=5;entryX=0.833;entryY=1;entryDx=0;entryDy=0;entryPerimeter=0;" edge="1" parent="1" target="10">
                    <mxGeometry width="100" relative="1" as="geometry">
                        <mxPoint x="110.00999999999999" y="500" as="sourcePoint"/>
                        <mxPoint x="20.009999999999998" y="540" as="targetPoint"/>
                        <Array as="points">
                            <mxPoint x="110" y="580"/>
                            <mxPoint x="20" y="580"/>
                            <mxPoint x="20" y="540"/>
                        </Array>
                    </mxGeometry>
                </mxCell>
                <mxCell id="290" value="PCsrc" style="text;html=1;align=center;verticalAlign=middle;resizable=0;points=[];autosize=1;strokeColor=none;fillColor=none;fontSize=12;" vertex="1" parent="1">
                    <mxGeometry x="803.01" y="180" width="60" height="30" as="geometry"/>
                </mxCell>
                <mxCell id="291" style="edgeStyle=orthogonalEdgeStyle;rounded=0;html=1;fontSize=5;dashed=1;" edge="1" parent="1" target="270">
                    <mxGeometry relative="1" as="geometry">
                        <mxPoint x="313.04" y="470.00000000000006" as="targetPoint"/>
                        <mxPoint x="310.01000000000005" y="200" as="sourcePoint"/>
                        <Array as="points">
                            <mxPoint x="310.01000000000005" y="200"/>
                        </Array>
                    </mxGeometry>
                </mxCell>
                <mxCell id="292" value="M&lt;br&gt;U&lt;br&gt;X" style="shape=trapezoid;perimeter=trapezoidPerimeter;whiteSpace=wrap;html=1;fixedSize=1;direction=south;" vertex="1" parent="1">
                    <mxGeometry x="410.01000000000005" y="448" width="30" height="80" as="geometry"/>
                </mxCell>
                <mxCell id="293" style="edgeStyle=orthogonalEdgeStyle;rounded=0;html=1;exitX=0.5;exitY=0;exitDx=0;exitDy=0;entryX=0.65;entryY=1;entryDx=0;entryDy=0;entryPerimeter=0;" edge="1" parent="1" target="292">
                    <mxGeometry relative="1" as="geometry">
                        <mxPoint x="390.01000000000005" y="500.3" as="sourcePoint"/>
                        <mxPoint x="400.01000000000005" y="500" as="targetPoint"/>
                    </mxGeometry>
                </mxCell>
                <mxCell id="294" value="&lt;font style=&quot;font-size: 5px;&quot;&gt;0&lt;/font&gt;" style="text;html=1;align=center;verticalAlign=middle;resizable=0;points=[];autosize=1;strokeColor=none;fillColor=none;fontSize=8;" vertex="1" parent="1">
                    <mxGeometry x="400.01000000000005" y="489" width="30" height="20" as="geometry"/>
                </mxCell>
                <mxCell id="295" value="&lt;font style=&quot;font-size: 5px;&quot;&gt;1&lt;/font&gt;" style="text;html=1;align=center;verticalAlign=middle;resizable=0;points=[];autosize=1;strokeColor=none;fillColor=none;fontSize=8;" vertex="1" parent="1">
                    <mxGeometry x="400.01000000000005" y="460" width="30" height="20" as="geometry"/>
                </mxCell>
                <mxCell id="296" style="edgeStyle=orthogonalEdgeStyle;rounded=0;html=1;fontSize=5;dashed=1;" edge="1" parent="1">
                    <mxGeometry relative="1" as="geometry">
                        <mxPoint x="424.91" y="458.0033333333333" as="targetPoint"/>
                        <mxPoint x="425.01000000000005" y="200" as="sourcePoint"/>
                        <Array as="points">
                            <mxPoint x="425.01000000000005" y="210"/>
                        </Array>
                    </mxGeometry>
                </mxCell>
                <mxCell id="297" value="Stall_en" style="text;html=1;align=center;verticalAlign=middle;resizable=0;points=[];autosize=1;strokeColor=none;fillColor=none;fontSize=12;" vertex="1" parent="1">
                    <mxGeometry x="270.01000000000005" y="120" width="70" height="30" as="geometry"/>
                </mxCell>
                <mxCell id="298" style="edgeStyle=orthogonalEdgeStyle;rounded=0;html=1;fontSize=5;fillColor=#dae8fc;gradientColor=#7ea6e0;strokeColor=#6c8ebf;" edge="1" parent="1">
                    <mxGeometry relative="1" as="geometry">
                        <mxPoint x="740" y="560" as="targetPoint"/>
                        <mxPoint x="1310" y="530" as="sourcePoint"/>
                        <Array as="points">
                            <mxPoint x="1310" y="168"/>
                            <mxPoint x="710" y="168"/>
                        </Array>
                    </mxGeometry>
                </mxCell>
                <mxCell id="299" value="" style="edgeStyle=none;orthogonalLoop=1;jettySize=auto;html=1;rounded=0;fontSize=12;fillColor=#dae8fc;gradientColor=#7ea6e0;strokeColor=#6c8ebf;" edge="1" parent="1">
                    <mxGeometry width="100" relative="1" as="geometry">
                        <mxPoint x="710" y="440" as="sourcePoint"/>
                        <mxPoint x="740" y="440" as="targetPoint"/>
                        <Array as="points"/>
                    </mxGeometry>
                </mxCell>
                <mxCell id="301" value="instruction addr" style="text;html=1;align=center;verticalAlign=middle;resizable=0;points=[];autosize=1;strokeColor=none;fillColor=none;fontSize=12;" vertex="1" parent="1">
                    <mxGeometry x="175.01000000000005" y="40" width="110" height="30" as="geometry"/>
                </mxCell>
                <mxCell id="302" value="" style="edgeStyle=orthogonalEdgeStyle;orthogonalLoop=1;jettySize=auto;html=1;rounded=0;fontSize=12;fillColor=#d5e8d4;strokeColor=#82b366;" edge="1" parent="1">
                    <mxGeometry width="100" relative="1" as="geometry">
                        <mxPoint x="720" y="780" as="sourcePoint"/>
                        <mxPoint x="740" y="460" as="targetPoint"/>
                        <Array as="points">
                            <mxPoint x="720" y="460"/>
                        </Array>
                    </mxGeometry>
                </mxCell>
                <mxCell id="303" value="" style="edgeStyle=orthogonalEdgeStyle;orthogonalLoop=1;jettySize=auto;html=1;rounded=0;fontSize=12;fillColor=#d5e8d4;strokeColor=#82b366;" edge="1" parent="1">
                    <mxGeometry width="100" relative="1" as="geometry">
                        <mxPoint x="720" y="580" as="sourcePoint"/>
                        <mxPoint x="740" y="580" as="targetPoint"/>
                        <Array as="points">
                            <mxPoint x="730" y="580"/>
                            <mxPoint x="730" y="580"/>
                        </Array>
                    </mxGeometry>
                </mxCell>
            </root>
        </mxGraphModel>
    </diagram>
</mxfile>